<svg width="35" height="23" viewBox="0 0 35 23" fill="none" xmlns="http://www.w3.org/2000/svg">
              <g opacity="0.5">
                <path
                  d="M3.11163 12.0128C7.29437 3.85856 21.934 -4.50693 32.3908 12.0128C21.934 25.8179 7.29437 20.5895 3.11163 12.0128Z"
                  fill="black" fill-opacity="0.5" />
                <path
                  d="M2.18121 11.5355L1.94246 12.001L2.17176 12.4712C4.42518 17.0918 9.44635 20.7505 15.2748 21.4443C21.1697 22.1461 27.7948 19.8123 33.2244 12.6442L33.6622 12.0662L33.2744 11.4535C30.5803 7.19745 27.5693 4.47027 24.4492 2.95609C21.3225 1.43869 18.1507 1.17134 15.2028 1.73284C9.35982 2.84579 4.40183 7.20646 2.18121 11.5355Z"
                  stroke="black" stroke-opacity="0.5" stroke-width="2.09137" />
                <rect x="12.5228" y="6.28423" width="10.4569" height="10.4569" rx="5.22843" fill="#808080"
                  stroke="white" stroke-width="3.13706" />
              </g>
            </svg>