          <svg width="22" height="22" viewBox="0 0 22 22" fill="none" xmlns="http://www.w3.org/2000/svg">
            <path fill-rule="evenodd" clip-rule="evenodd"
              d="M10.1916 0.679156C8.21916 0.886544 6.23416 1.71251 4.66189 2.98C3.84385 3.63947 2.92562 4.69415 2.3325 5.65551C1.23922 7.4276 0.676636 9.75674 0.843423 11.8203C1.0122 13.9088 1.66969 15.6718 2.91028 17.3625C3.32625 17.9294 4.35307 18.9675 4.92492 19.3992C6.88701 20.8805 9.26766 21.6278 11.711 21.5295C14.1354 21.4318 16.152 20.7129 17.8163 19.3529C18.3199 18.9414 19.0538 18.1534 19.4422 17.6072C20.9329 15.5108 21.5962 12.5236 21.1993 9.69446C21.1592 9.40886 21.1264 9.16785 21.1264 9.15893C21.1264 9.15002 18.9068 9.14269 16.194 9.14269H11.2615L11.2745 11.1727L11.2875 13.2028L14.1146 13.2156C16.8751 13.2282 16.9418 13.2308 16.9418 13.3252C16.9418 13.4841 16.6918 14.2275 16.5306 14.5478C16.2887 15.0286 16.0042 15.4183 15.6005 15.8219C14.809 16.6134 13.7949 17.119 12.5397 17.3478C11.8995 17.4645 10.6788 17.4613 10.1168 17.3415C7.53468 16.791 5.56303 14.7451 5.10979 12.1462C5.01355 11.5941 5.01484 10.5697 5.11253 10.0086C5.56113 7.43084 7.49234 5.4138 10.0751 4.82546C10.6368 4.69753 11.9925 4.70819 12.5857 4.84524C13.4809 5.05208 14.3088 5.45181 14.976 5.9994L15.3336 6.29287L16.7951 4.83074L18.2566 3.36857L18.1596 3.26097C17.7702 2.8289 16.6513 2.07114 15.7711 1.64336C14.0922 0.827461 12.0832 0.480287 10.1916 0.679156Z"
              fill="black" fill-opacity="0.5" />
          </svg>