<svg width="40" height="40" viewBox="0 0 40 40" fill="none" xmlns="http://www.w3.org/2000/svg">
                <path fill-rule="evenodd" clip-rule="evenodd"
                  d="M20 40C31.0457 40 40 31.0457 40 20C40 8.9543 31.0457 0 20 0C8.9543 0 0 8.9543 0 20C0 31.0457 8.9543 40 20 40ZM32.8769 31.216V31.217H27.9119V23.416C27.9119 21.557 27.8739 19.173 25.3249 19.173C22.7379 19.173 22.3419 21.193 22.3419 23.282V31.216H17.3719V15.193H22.1449V17.378H22.2149C22.8779 16.119 24.5019 14.791 26.9219 14.791C31.9559 14.791 32.8829 18.108 32.8829 22.414V31.216H32.8769ZM9.396 15.1943H14.372V31.2173H9.396V15.1943ZM9 9.882C9 8.291 10.291 7 11.882 7C13.472 7 14.763 8.291 14.764 9.882C14.764 11.473 13.473 12.791 11.882 12.791C10.291 12.791 9 11.473 9 9.882Z"
                  fill="#8CC5F9" />
              </svg>