<svg width="40" height="40" viewBox="0 0 40 40" fill="none" xmlns="http://www.w3.org/2000/svg">
                <path fill-rule="evenodd" clip-rule="evenodd"
                  d="M20 40C31.0457 40 40 31.0457 40 20C40 8.9543 31.0457 0 20 0C8.9543 0 0 8.9543 0 20C0 31.0457 8.9543 40 20 40ZM15.0529 8.07267C13.7754 8.13085 12.9024 8.33341 12.1401 8.63005C11.3505 8.93638 10.6822 9.34736 10.0143 10.0142C9.34636 10.681 8.93642 11.3504 8.63007 12.1399C8.33342 12.9027 8.13085 13.7752 8.07268 15.0526C8.01354 16.3321 8 16.7412 8 20C8 23.2588 8.01354 23.6679 8.07268 24.9474C8.13085 26.2249 8.33342 27.0973 8.63007 27.8601C8.93642 28.6491 9.34645 29.3193 10.0143 29.9858C10.6821 30.6524 11.3505 31.0628 12.1401 31.37C12.9039 31.6666 13.7754 31.8692 15.0529 31.9273C16.3331 31.9855 16.7415 32 20.0005 32C23.2594 32 23.6685 31.9865 24.948 31.9273C26.2257 31.8692 27.098 31.6666 27.8609 31.37C28.6499 31.0628 29.3188 30.6526 29.9867 29.9858C30.6546 29.319 31.0637 28.6491 31.3709 27.8601C31.6675 27.0973 31.8711 26.2248 31.9283 24.9474C31.9865 23.6669 32 23.2588 32 20C32 16.7412 31.9865 16.3321 31.9283 15.0526C31.8701 13.7751 31.6675 12.9022 31.3709 12.1399C31.0637 11.3509 30.6535 10.682 29.9867 10.0142C29.3199 9.3463 28.6499 8.93638 27.8619 8.63005C27.098 8.33341 26.2256 8.12989 24.949 8.07267C23.6695 8.0145 23.2604 8 20.0014 8C16.7425 8 16.3331 8.01354 15.0529 8.07267ZM15 20C15 17.2388 17.238 15 19.9993 15C22.7608 15 25 17.2391 25 20C25 22.7609 22.7608 25 19.9993 25C17.238 25 15 22.7612 15 20ZM19.9993 13C16.1331 13 13 16.1346 13 20C13 23.8654 16.1331 27 19.9993 27C23.8652 27 27 23.8657 27 20C27 16.1343 23.8652 13 19.9993 13ZM29 12.5C29 13.3284 28.3284 14 27.5 14C26.6716 14 26 13.3284 26 12.5C26 11.6716 26.6716 11 27.5 11C28.3284 11 29 11.6716 29 12.5Z"
                  fill="#8CC5F9" />
              </svg>