<svg width="40" height="40" viewBox="0 0 40 40" fill="none" xmlns="http://www.w3.org/2000/svg">
                <path fill-rule="evenodd" clip-rule="evenodd"
                  d="M20 40C31.0457 40 40 31.0457 40 20C40 8.9543 31.0457 0 20 0C8.9543 0 0 8.9543 0 20C0 31.0457 8.9543 40 20 40ZM10.7884 14.2675C10.8409 14.3962 10.8606 14.5348 10.8459 14.672V24.6932C10.8781 24.8714 10.8654 25.0543 10.809 25.2271C10.7525 25.3999 10.6538 25.5577 10.5209 25.6878L8 28.5768V28.9576H15.1483V28.5767L12.6274 25.6878C12.4934 25.5578 12.3925 25.4007 12.3323 25.2283C12.2721 25.056 12.2543 24.873 12.2801 24.6932V16.0265L18.5545 28.9576H19.2829L24.6723 16.0265V26.3334C24.6723 26.6084 24.6723 26.6612 24.4818 26.8412L22.5435 28.6191V29H31.9551V28.6191L30.084 26.8836C30.003 26.8253 29.9403 26.7471 29.9028 26.6576C29.8653 26.5681 29.8544 26.4706 29.8711 26.3756V13.6244C29.8544 13.5294 29.8653 13.4319 29.9028 13.3424C29.9403 13.2529 30.003 13.1747 30.084 13.1164L32 11.3809V11H25.367L20.6385 22.1429L15.2605 11H8.30229V11.3808L10.5435 13.9312C10.6519 14.0236 10.7358 14.1388 10.7884 14.2675Z"
                  fill="#8CC5F9" />
              </svg>