<svg width="36" height="36" viewBox="0 0 36 36" fill="none" xmlns="http://www.w3.org/2000/svg">
<g clip-path="url(#clip0_2_7319)">
<path d="M10.5 12V9C10.5 7.01088 11.2902 5.10322 12.6967 3.6967C14.1032 2.29018 16.0109 1.5 18 1.5C19.9891 1.5 21.8968 2.29018 23.3033 3.6967C24.7098 5.10322 25.5 7.01088 25.5 9V12H30C30.3978 12 30.7794 12.158 31.0607 12.4393C31.342 12.7206 31.5 13.1022 31.5 13.5V31.5C31.5 31.8978 31.342 32.2794 31.0607 32.5607C30.7794 32.842 30.3978 33 30 33H6C5.60218 33 5.22064 32.842 4.93934 32.5607C4.65804 32.2794 4.5 31.8978 4.5 31.5V13.5C4.5 13.1022 4.65804 12.7206 4.93934 12.4393C5.22064 12.158 5.60218 12 6 12H10.5ZM10.5 15H7.5V30H28.5V15H25.5V18H22.5V15H13.5V18H10.5V15ZM13.5 12H22.5V9C22.5 7.80653 22.0259 6.66193 21.182 5.81802C20.3381 4.97411 19.1935 4.5 18 4.5C16.8065 4.5 15.6619 4.97411 14.818 5.81802C13.9741 6.66193 13.5 7.80653 13.5 9V12Z" fill="#131212"/>
</g>
<defs>
<clipPath id="clip0_2_7319">
<rect width="36" height="36" fill="white"/>
</clipPath>
</defs>
</svg>
