<svg width="28" height="28" viewBox="0 0 28 28" fill="none" xmlns="http://www.w3.org/2000/svg">
<g clip-path="url(#clip0_2_7287)">
<path d="M14 2.33334C17.1698 2.33334 17.5653 2.34501 18.809 2.40334C20.0515 2.46168 20.8973 2.65651 21.6416 2.94584C22.4116 3.24218 23.0603 3.64351 23.709 4.29101C24.3022 4.87422 24.7613 5.5797 25.0541 6.35834C25.3423 7.10151 25.5383 7.94851 25.5966 9.19101C25.6515 10.4347 25.6666 10.8302 25.6666 14C25.6666 17.1698 25.655 17.5653 25.5966 18.809C25.5383 20.0515 25.3423 20.8973 25.0541 21.6417C24.7621 22.4207 24.303 23.1264 23.709 23.709C23.1256 24.3021 22.4202 24.7611 21.6416 25.0542C20.8985 25.3423 20.0515 25.5383 18.809 25.5967C17.5653 25.6515 17.1698 25.6667 14 25.6667C10.8301 25.6667 10.4346 25.655 9.19098 25.5967C7.94848 25.5383 7.10265 25.3423 6.35831 25.0542C5.57936 24.7619 4.87376 24.3028 4.29098 23.709C3.69762 23.1259 3.23857 22.4204 2.94581 21.6417C2.65648 20.8985 2.46165 20.0515 2.40331 18.809C2.34848 17.5653 2.33331 17.1698 2.33331 14C2.33331 10.8302 2.34498 10.4347 2.40331 9.19101C2.46165 7.94734 2.65648 7.10268 2.94581 6.35834C3.23776 5.57922 3.69692 4.87355 4.29098 4.29101C4.87393 3.69745 5.57948 3.23836 6.35831 2.94584C7.10265 2.65651 7.94731 2.46168 9.19098 2.40334C10.4346 2.34851 10.8301 2.33334 14 2.33334ZM14 8.16668C12.4529 8.16668 10.9692 8.78126 9.87519 9.87522C8.78123 10.9692 8.16665 12.4529 8.16665 14C8.16665 15.5471 8.78123 17.0308 9.87519 18.1248C10.9692 19.2188 12.4529 19.8333 14 19.8333C15.5471 19.8333 17.0308 19.2188 18.1248 18.1248C19.2187 17.0308 19.8333 15.5471 19.8333 14C19.8333 12.4529 19.2187 10.9692 18.1248 9.87522C17.0308 8.78126 15.5471 8.16668 14 8.16668ZM21.5833 7.87501C21.5833 7.48824 21.4297 7.1173 21.1562 6.84381C20.8827 6.57032 20.5118 6.41668 20.125 6.41668C19.7382 6.41668 19.3673 6.57032 19.0938 6.84381C18.8203 7.1173 18.6666 7.48824 18.6666 7.87501C18.6666 8.26178 18.8203 8.63272 19.0938 8.90621C19.3673 9.1797 19.7382 9.33334 20.125 9.33334C20.5118 9.33334 20.8827 9.1797 21.1562 8.90621C21.4297 8.63272 21.5833 8.26178 21.5833 7.87501ZM14 10.5C14.9282 10.5 15.8185 10.8688 16.4749 11.5251C17.1312 12.1815 17.5 13.0718 17.5 14C17.5 14.9283 17.1312 15.8185 16.4749 16.4749C15.8185 17.1313 14.9282 17.5 14 17.5C13.0717 17.5 12.1815 17.1313 11.5251 16.4749C10.8687 15.8185 10.5 14.9283 10.5 14C10.5 13.0718 10.8687 12.1815 11.5251 11.5251C12.1815 10.8688 13.0717 10.5 14 10.5Z" fill="#131212"/>
</g>
<defs>
<clipPath id="clip0_2_7287">
<rect width="28" height="28" fill="white"/>
</clipPath>
</defs>
</svg>
