<svg width="28" height="28" viewBox="0 0 28 28" fill="none" xmlns="http://www.w3.org/2000/svg">
<g clip-path="url(#clip0_2_7284)">
<path d="M25.8557 6.59867C24.965 6.99265 24.0205 7.25139 23.0533 7.36634C24.0727 6.75668 24.8357 5.79719 25.2 4.66667C24.2433 5.23601 23.1945 5.63501 22.1013 5.85084C21.367 5.06518 20.3938 4.54413 19.3328 4.36869C18.2718 4.19325 17.1826 4.37325 16.2345 4.8807C15.2864 5.38816 14.5325 6.19464 14.09 7.17476C13.6475 8.15489 13.5412 9.25375 13.7877 10.3005C11.8476 10.2033 9.94972 9.69912 8.21717 8.82078C6.48462 7.94245 4.95615 6.70956 3.731 5.20217C3.29734 5.94703 3.06945 6.79377 3.07067 7.65567C3.07067 9.34734 3.93167 10.8418 5.24067 11.7168C4.46601 11.6925 3.7084 11.4833 3.031 11.1067V11.1673C3.03123 12.294 3.4211 13.3859 4.13449 14.2579C4.84788 15.1299 5.8409 15.7284 6.94517 15.9518C6.22605 16.1467 5.47203 16.1754 4.74017 16.0358C5.05151 17.0056 5.65834 17.8537 6.47569 18.4615C7.29304 19.0692 8.27998 19.4061 9.29833 19.425C8.28623 20.2199 7.12737 20.8075 5.88803 21.1542C4.64868 21.5009 3.35315 21.6 2.0755 21.4457C4.30581 22.88 6.90211 23.6415 9.55383 23.639C18.529 23.639 23.4372 16.2038 23.4372 9.75567C23.4372 9.54567 23.4313 9.33334 23.422 9.12567C24.3773 8.4352 25.2019 7.57986 25.8568 6.59984L25.8557 6.59867Z" fill="#131212"/>
</g>
<defs>
<clipPath id="clip0_2_7284">
<rect width="28" height="28" fill="white"/>
</clipPath>
</defs>
</svg>
