<svg width="36" height="36" viewBox="0 0 36 36" fill="none" xmlns="http://www.w3.org/2000/svg">
<g clip-path="url(#clip0_2_7325)">
<path d="M18 33C9.7155 33 3 26.2845 3 18C3 9.7155 9.7155 3 18 3C26.2845 3 33 9.7155 33 18C33 26.2845 26.2845 33 18 33ZM10.5195 27.384C12.6428 29.0815 15.2815 30.0043 18 30C20.955 30 23.6595 28.932 25.7505 27.162C24.7736 26.1596 23.6056 25.3633 22.3156 24.8202C21.0255 24.2771 19.6397 23.9982 18.24 24C16.7889 23.9983 15.3533 24.2983 14.0242 24.8808C12.6951 25.4634 11.5017 26.3158 10.5195 27.384ZM8.424 25.23C9.68468 23.8921 11.206 22.8266 12.8942 22.0991C14.5824 21.3716 16.4017 20.9975 18.24 21C20.0125 20.9977 21.768 21.3455 23.4056 22.0236C25.0433 22.7016 26.5309 23.6965 27.783 24.951C29.0671 23.1437 29.8254 21.016 29.9738 18.8039C30.1223 16.5918 29.6549 14.3818 28.6237 12.4192C27.5925 10.4565 26.0378 8.81793 24.132 7.68517C22.2261 6.5524 20.0437 5.96976 17.8269 6.00188C15.6101 6.034 13.4455 6.67963 11.5733 7.86714C9.70107 9.05464 8.19444 10.7376 7.22054 12.7293C6.24664 14.721 5.84354 16.9436 6.05597 19.1504C6.26841 21.3573 7.08806 23.4621 8.424 25.2315V25.23ZM18 19.5C16.4087 19.5 14.8826 18.8679 13.7574 17.7426C12.6321 16.6174 12 15.0913 12 13.5C12 11.9087 12.6321 10.3826 13.7574 9.25736C14.8826 8.13214 16.4087 7.5 18 7.5C19.5913 7.5 21.1174 8.13214 22.2426 9.25736C23.3679 10.3826 24 11.9087 24 13.5C24 15.0913 23.3679 16.6174 22.2426 17.7426C21.1174 18.8679 19.5913 19.5 18 19.5ZM18 16.5C18.7956 16.5 19.5587 16.1839 20.1213 15.6213C20.6839 15.0587 21 14.2956 21 13.5C21 12.7044 20.6839 11.9413 20.1213 11.3787C19.5587 10.8161 18.7956 10.5 18 10.5C17.2044 10.5 16.4413 10.8161 15.8787 11.3787C15.3161 11.9413 15 12.7044 15 13.5C15 14.2956 15.3161 15.0587 15.8787 15.6213C16.4413 16.1839 17.2044 16.5 18 16.5Z" fill="black"/>
</g>
<defs>
<clipPath id="clip0_2_7325">
<rect width="36" height="36" fill="white"/>
</clipPath>
</defs>
</svg>
