<svg width="353" height="329" viewBox="0 0 353 329" fill="none" xmlns="http://www.w3.org/2000/svg">
<g clip-path="url(#clip0_2_930)">
<path opacity="0.4" d="M349.558 285.76C348.8 287.917 347.876 290.012 346.795 292.027C336.168 312.321 312.119 323.753 288.945 327.262C253.992 332.549 218.597 324.422 183.374 321.354C154.551 318.824 125.508 319.722 96.6525 321.925C79.282 323.28 61.0533 324.969 45.1542 317.919C32.1489 312.207 22.6013 301.362 16.1844 288.543C11.6192 279.332 8.50357 269.473 6.94743 259.314C3.13003 235.299 5.80303 210.713 3.67771 186.487C2.43521 173.153 -0.15605 159.885 -0.017087 146.479C0.220611 132.904 3.26421 119.526 8.92301 107.181C14.5818 94.8354 22.7338 83.79 32.8682 74.7364C41.9581 66.7071 52.4376 60.4403 62.2222 53.2677C81.1948 39.3142 97.6334 21.754 118.249 10.371C138.865 -1.01214 166.126 -5.0921 185.14 8.82057C192.374 8.12697 201.946 7.18858 209.148 8.07802C216.349 8.96745 223.559 11.5133 228.766 16.5399C232.412 20.0405 234.921 24.5447 238.003 28.5431C242.196 34.0511 248.809 42.3171 255.537 44.047C276.349 49.2856 299.85 41.1175 319.043 50.7381C335.13 58.743 343.305 77.3721 345.119 95.2097C346.934 113.047 343.599 130.991 343.002 148.926C341.809 184.757 351.52 220.105 352.877 255.936C353.261 265.989 352.95 276.287 349.558 285.76Z" fill="#8CC5F9"/>
<path opacity="0.4" d="M346.796 292.027C336.169 312.321 312.12 323.753 288.946 327.262C253.993 332.55 218.598 324.422 183.375 321.354C154.552 318.825 125.509 319.722 96.6532 321.925C79.2828 323.28 61.0541 324.969 45.155 317.919C32.1496 312.207 22.602 301.362 16.1852 288.543C30.1878 289.775 44.7953 288.657 58.8061 288.755C125.242 289.093 191.669 289.713 258.088 290.616C287.652 291.035 317.221 291.505 346.796 292.027Z" fill="#8CC5F9"/>
<path d="M263.197 160.31C263.197 160.31 260.581 164.219 260.156 164.21C259.731 164.202 233.769 158.156 233.769 158.156C233.769 158.156 231.317 154.696 228.293 154.214C226.184 153.872 223.192 152.835 222.775 152.395C222.358 151.954 222.571 154.361 224.41 155.414C224.925 155.708 226.224 156.23 225.432 156.728C224.639 157.225 223.486 156.214 222.922 157.046C222.644 157.462 222.922 158.001 223.175 158.441C223.472 159.022 223.655 159.653 223.715 160.302C223.756 160.718 223.404 161.934 223.584 162.236C223.895 162.774 225.906 162.995 226.47 163.125C228.818 163.705 231.221 164.038 233.639 164.121C236.622 164.178 254.786 175.194 259.911 175.292C265.036 175.389 271.142 168.682 271.142 168.682C271.142 168.682 270.505 162.831 267.717 161.012C264.93 159.192 263.197 160.31 263.197 160.31Z" fill="#F5FAFE"/>
<path d="M268.853 144.831C268.853 144.831 265.625 144.414 263.042 147.809C260.458 151.204 254.205 168.07 254.205 168.07C254.205 168.07 257.377 166.724 260.892 169.702C264.407 172.68 264.292 175.414 264.292 175.414C264.292 175.414 274.33 165.467 274.69 160.489C275.05 155.512 274.126 150.861 268.853 144.831Z" fill="#8CC5F9"/>
<path d="M127.846 41.1668C125.149 43.1823 122.5 45.4263 120.931 48.3965C119.239 51.6115 118.936 55.4467 117.032 58.5393C113.476 64.3083 105.849 65.6384 99.1954 66.9114C92.5415 68.1843 84.8821 70.9913 83.1901 77.5193C95.3286 87.3928 105.97 98.9696 114.784 111.889C115.07 108.403 116.305 105.062 118.355 102.226C120.405 99.3901 123.192 97.1672 126.416 95.7975C130.74 94.0349 135.465 93.9452 140.051 93.5127C144.007 93.1374 149.173 92.9497 152.5 90.5915C155.827 88.2332 157.568 84.1043 160.127 80.8485C162.823 77.4938 166.469 75.0283 170.59 73.7739C172.679 73.1256 174.852 72.7901 177.039 72.7783C178.625 72.7783 181.486 73.8228 182.835 73.3087C181.11 69.8408 178.544 66.5768 176.549 63.2312C174.554 59.8857 172.519 56.4911 170.59 53.0721C167.713 47.9722 164.402 36.5891 159.849 33.1538C151.209 26.6585 134.639 36.0832 127.846 41.1668Z" fill="url(#paint0_linear_2_930)"/>
<path d="M237.454 181.165L239.694 180.001L162.4 31.7824L160.16 32.9467L237.454 181.165Z" fill="#878ABC"/>
<path d="M249.685 41.1668C252.382 43.1823 255.031 45.4263 256.6 48.3965C258.292 51.6115 258.603 55.4466 260.508 58.5393C264.055 64.3083 271.682 65.6384 278.336 66.9113C284.99 68.1843 292.649 70.9913 294.341 77.5192C282.205 87.395 271.563 98.9714 262.747 111.889C262.463 108.403 261.229 105.061 259.178 102.224C257.128 99.3881 254.34 97.1656 251.115 95.7975C246.799 94.0349 242.066 93.9452 237.48 93.5127C233.524 93.1373 228.358 92.9496 225.031 90.5914C221.704 88.2332 219.971 84.1043 217.404 80.8485C214.709 77.4937 211.062 75.0283 206.941 73.7738C204.855 73.1256 202.684 72.7901 200.5 72.7783C198.906 72.7783 196.053 73.8228 194.696 73.3087C196.421 69.8163 198.988 66.5523 201.023 63.2067C203.058 59.8612 205.053 56.4666 206.982 53.0476C209.868 47.9477 213.17 36.5646 217.731 33.1293C226.355 26.6584 242.892 36.0831 249.685 41.1668Z" fill="#8CC5F9"/>
<path d="M127.846 41.1668C125.149 43.1823 122.5 45.4263 120.931 48.3965C119.239 51.6115 118.936 55.4467 117.032 58.5393C113.476 64.3083 105.849 65.6384 99.1954 66.9114C92.5415 68.1843 84.8821 70.9913 83.1901 77.5193C95.3286 87.3928 105.97 98.9696 114.784 111.889C115.07 108.403 116.305 105.062 118.355 102.226C120.405 99.3901 123.192 97.1672 126.416 95.7975C130.74 94.0349 135.465 93.9452 140.051 93.5127C144.007 93.1374 149.173 92.9497 152.5 90.5915C155.827 88.2332 157.568 84.1043 160.127 80.8485C162.823 77.4938 166.469 75.0283 170.59 73.7739C172.679 73.1256 174.852 72.7901 177.039 72.7783C178.625 72.7783 181.486 73.8228 182.835 73.3087C181.11 69.8408 178.544 66.5768 176.549 63.2312C174.554 59.8857 172.519 56.4911 170.59 53.0721C167.713 47.9722 164.402 36.5891 159.849 33.1538C151.209 26.6585 134.639 36.0832 127.846 41.1668Z" fill="#8CC5F9"/>
<path d="M127.846 41.1668C125.149 43.1823 122.5 45.4263 120.931 48.3965C119.239 51.6115 118.936 55.4467 117.032 58.5393C113.476 64.3083 105.849 65.6384 99.1954 66.9114C92.5415 68.1843 84.8821 70.9913 83.1901 77.5193C95.3286 87.3928 105.97 98.9696 114.784 111.889C115.07 108.403 116.305 105.062 118.355 102.226C120.405 99.3901 123.192 97.1672 126.416 95.7975C130.74 94.0349 135.465 93.9452 140.051 93.5127C144.007 93.1374 149.173 92.9497 152.5 90.5915C155.827 88.2332 157.568 84.1043 160.127 80.8485C162.823 77.4938 166.469 75.0283 170.59 73.7739C172.679 73.1256 174.852 72.7901 177.039 72.7783C178.625 72.7783 181.486 73.8228 182.835 73.3087C181.11 69.8408 178.544 66.5768 176.549 63.2312C174.554 59.8857 172.519 56.4911 170.59 53.0721C167.713 47.9722 164.402 36.5891 159.849 33.1538C151.209 26.6585 134.639 36.0832 127.846 41.1668Z" fill="url(#paint1_linear_2_930)"/>
<path d="M249.685 41.1668C252.382 43.1823 255.031 45.4263 256.6 48.3965C258.292 51.6115 258.603 55.4466 260.508 58.5393C264.055 64.3083 271.682 65.6384 278.336 66.9113C284.99 68.1843 292.649 70.9913 294.341 77.5192C282.205 87.395 271.563 98.9714 262.747 111.889C262.463 108.403 261.229 105.061 259.178 102.224C257.128 99.3881 254.34 97.1656 251.115 95.7975C246.799 94.0349 242.066 93.9452 237.48 93.5127C233.524 93.1373 228.358 92.9496 225.031 90.5914C221.704 88.2332 219.971 84.1043 217.404 80.8485C214.709 77.4937 211.062 75.0283 206.941 73.7738C204.855 73.1256 202.684 72.7901 200.5 72.7783C198.906 72.7783 196.053 73.8228 194.696 73.3087C196.421 69.8163 198.988 66.5523 201.023 63.2067C203.058 59.8612 205.053 56.4666 206.982 53.0476C209.868 47.9477 213.17 36.5646 217.731 33.1293C226.355 26.6584 242.892 36.0831 249.685 41.1668Z" fill="#878ABC"/>
<path d="M217.351 32.9345L215.111 31.7703L137.817 179.989L140.057 181.153L217.351 32.9345Z" fill="#878ABC"/>
<path d="M57.6944 104.521C57.0924 102.366 57.0755 100.09 57.6454 97.9273C58.3173 95.6936 59.4821 93.6387 61.0541 91.9134C62.5922 91.4035 64.2501 91.3778 65.8033 91.84C67.9368 92.656 64.9205 96.5075 65.1984 98.3679C65.4764 100.228 67.2338 95.1039 68.2638 95.5609C69.2938 96.0179 66.6289 103.003 64.6834 103.876" fill="#F5FAFE"/>
<path d="M79.2092 140.334C79.2092 140.334 68.321 137.07 67.2256 138.131C66.2529 139.11 75.7842 207.711 76.2746 210.64C76.7651 213.57 92.9094 212.591 99.7513 210.64C104.313 209.278 108.736 207.488 112.961 205.296C112.961 205.296 105.081 142.725 103.61 141.754C102.138 140.783 91.5116 139.926 91.5116 139.926L79.2092 140.334Z" fill="#8CC5F9"/>
<path d="M78.4572 163.427C78.4572 163.427 71.1003 161.518 68.7379 157.013C66.3756 152.509 53.6481 131.783 54.0242 126.968C54.4574 121.395 57.1631 103.076 57.1631 103.076C57.1631 103.076 57.4655 101.583 61.005 102.04C64.5445 102.497 65.0922 104.488 65.0922 104.488L65.4028 125.989L76.2011 145.761C76.2011 145.761 80.5825 159.396 78.4572 163.427Z" fill="#8CC5F9"/>
<path d="M118.56 306.34C118.56 306.34 120.628 314.133 121.593 314.704C122.558 315.275 125.95 313.472 127.912 312.052C129.874 310.632 129.171 307.613 129.171 307.613L128.353 305.246L118.56 306.34Z" fill="#F5FAFE"/>
<path d="M66.6044 302.586C66.6044 302.586 62.836 313.194 63.212 314.231C63.5881 315.267 68.1984 313.749 70.618 313.904C73.0376 314.059 73.9613 310.322 73.9613 310.322L74.8196 307.956L66.6044 302.586Z" fill="#F5FAFE"/>
<path d="M78.2365 134.476C78.2365 134.476 79.6997 140.824 79.2092 143.264C78.7187 145.704 82.6342 152.542 87.5225 152.542C92.4107 152.542 92.4271 144.243 92.4271 143.264C92.4271 142.285 90.9557 141.803 91.4462 139.363C91.9366 136.924 78.7187 131.546 78.2365 134.476Z" fill="#F5FAFE"/>
<path d="M91.438 139.363C91.3118 139.933 91.3199 140.525 91.4617 141.091C91.6036 141.658 91.8753 142.184 92.2554 142.627C91.1759 143.692 89.7412 144.322 88.2255 144.398C85.2909 144.398 80.8686 141.95 78.9313 137.568L78.825 137.323C78.5471 135.691 78.261 134.451 78.261 134.451C78.7187 131.546 91.9285 136.924 91.438 139.363Z" fill="#F5FAFE"/>
<path d="M79.2746 142.358C79.2746 142.358 83.2146 151.571 86.5743 152.542C86.5743 152.542 87.4898 153.031 85.0457 154.492C82.6015 155.953 75.7514 148.641 76.7324 143.264C76.8376 142.577 77.1186 141.93 77.5482 141.384C77.9779 140.838 78.5416 140.411 79.1847 140.147L79.2746 142.358Z" fill="white"/>
<path d="M91.4381 140.334C91.4381 140.334 92.5253 147.115 89.8032 151.758C89.8032 151.758 90.9721 153.496 91.9531 153.496C92.934 153.496 95.3781 147.637 94.4053 143.239C93.8004 140.702 91.9285 139.641 91.4381 140.334Z" fill="white"/>
<path d="M76.2746 210.64L81.6206 253.072L64.9858 307.988C64.9858 307.988 68.0512 309.677 74.4027 309.188L96.9883 254.892L97.3071 220.375L104.615 250.175L118.683 308.233C118.683 308.233 125.836 309.808 130.045 306.781L120.784 250.175L112.961 205.296L76.2746 210.64Z" fill="#878ABC"/>
<path d="M94.3725 120.318C94.3725 120.318 95.3534 133.015 94.3725 136.434C93.3916 139.853 90.457 142.782 87.5224 142.782C84.5878 142.782 80.1655 140.334 78.2364 135.944C76.3072 131.554 75.3018 120.808 75.7841 119.347C76.2664 117.886 79.2255 113.268 87.0401 113.978C92.4188 114.459 94.3725 118.368 94.3725 120.318Z" fill="#F5FAFE"/>
<path d="M76.3809 126.577C76.8305 127.572 78.3837 127.621 79.1766 126.862C79.5383 126.447 79.8 125.955 79.9416 125.423C80.0833 124.891 80.1012 124.334 79.994 123.794C79.8632 122.709 79.4872 121.656 79.4218 120.53C79.3839 120.406 79.3799 120.275 79.4101 120.149C79.4404 120.023 79.5038 119.907 79.5939 119.814C79.6839 119.721 79.7973 119.653 79.9223 119.618C80.0473 119.584 80.1792 119.583 80.3046 119.616C81.776 119.665 83.5089 120.245 84.5471 119.192C85.1602 118.572 85.3645 117.478 86.182 117.185C86.8686 116.94 87.5879 117.389 88.2337 117.731C90.0321 118.662 93.2609 119.274 94.25 116.915C94.7078 115.83 94.3481 114.508 94.4462 113.366C94.5443 112.223 95.329 110.567 94.5606 109.416C94.3154 109.041 93.8903 108.715 93.8903 108.258C93.9651 107.889 94.1437 107.549 94.4053 107.278C94.7555 106.777 94.9384 106.179 94.9281 105.568C94.9179 104.957 94.7149 104.365 94.3481 103.876C92.5229 105.082 90.4401 105.845 88.2664 106.103C84.5798 106.528 80.5417 105.549 77.3373 107.409C76.2435 108.111 75.3245 109.053 74.6503 110.163C73.976 111.273 73.5643 112.522 73.4464 113.815C73.408 114.593 73.2985 115.366 73.1194 116.124C72.6698 117.576 71.3619 117.527 70.6099 118.613C70.2282 119.263 69.9965 119.99 69.9314 120.741C69.8664 121.492 69.9697 122.248 70.2339 122.954C70.5308 123.507 70.6773 124.129 70.6589 124.757C70.5022 125.214 70.2937 125.652 70.0377 126.063C69.3755 127.54 70.3728 129.204 71.4028 130.453C72.7515 132.085 74.2229 133.717 75.6616 135.251C76.1602 135.781 76.6016 136.466 77.3619 136.679C77.9014 136.826 79.7324 136.352 78.6697 135.936" fill="#878ABC"/>
<path d="M78.0239 128.592C78.0239 128.592 77.5335 125.663 75.5716 126.642C73.6098 127.621 76.0539 132.982 77.0348 133.472C77.4746 133.743 77.9811 133.887 78.498 133.888" fill="#F5FAFE"/>
<path d="M140.034 312.329C141.072 312.631 142.274 313.08 142.544 314.116C142.904 315.454 141.457 316.564 140.092 316.997C138.052 317.547 135.94 317.781 133.83 317.69C130.127 317.69 126.424 317.69 122.729 317.511C122.39 317.527 122.052 317.465 121.74 317.331C121.49 317.159 121.279 316.936 121.12 316.678C120.96 316.419 120.857 316.13 120.816 315.83C120.499 314.547 120.358 313.226 120.4 311.905C120.393 311.676 120.443 311.449 120.547 311.244C121.16 310.24 124.356 311.472 125.353 311.415C127.086 311.326 128.157 310.428 129.669 309.783C131.182 309.139 132.383 310.004 133.871 310.526C135.906 311.26 137.999 311.758 140.034 312.329Z" fill="#878ABC"/>
<path d="M82.2663 314.255C83.3044 314.565 84.4979 315.071 84.7595 316.083C85.0946 317.421 83.6232 318.531 82.3072 318.914C80.2499 319.438 78.1249 319.647 76.0048 319.534C72.31 319.494 68.607 319.388 64.9122 319.184C64.5723 319.19 64.235 319.123 63.9231 318.988C63.6773 318.809 63.4707 318.583 63.3161 318.322C63.1614 318.061 63.062 317.771 63.0239 317.47C62.7238 316.182 62.6055 314.858 62.6725 313.537C62.6653 313.307 62.7189 313.079 62.8278 312.876C63.449 311.889 66.6288 313.17 67.6343 313.129C69.359 313.064 70.4462 312.182 71.9667 311.595C73.4871 311.007 74.6805 311.856 76.1601 312.411C78.1628 313.121 80.2391 313.643 82.2663 314.255Z" fill="#878ABC"/>
<path d="M103.609 141.73L127.307 160.587L146.876 151.334L146.533 161.615L126.277 172.925L104.648 159.216L103.609 141.73Z" fill="#8CC5F9"/>
<path d="M152.688 146.797C153.909 146.022 155.329 145.619 156.775 145.638C157.756 145.552 158.736 145.802 159.555 146.348C160.114 146.841 160.52 147.484 160.724 148.201C161.254 149.972 161.388 151.839 161.116 153.668C161.068 154.802 160.719 155.904 160.102 156.858C159.564 157.549 158.842 158.075 158.018 158.376C157.209 158.695 156.346 158.856 155.476 158.849C154.756 158.849 154.045 158.711 153.326 158.702C151.741 158.822 150.181 159.162 148.691 159.714C147.767 159.975 146.639 160.139 145.953 159.469C145.514 158.922 145.288 158.236 145.315 157.536C145.16 155.185 145.462 153.178 147.252 151.554C148.968 149.862 150.783 148.273 152.688 146.797Z" fill="#F5FAFE"/>
<path d="M287.189 301.419L287.712 308.723C286.444 309.476 284.973 309.818 283.502 309.702C281.279 309.424 276.824 304.855 275.753 305.083L275.794 302.905" fill="#F5FAFE"/>
<path d="M261.153 296.205L261.685 303.508C260.416 304.26 258.946 304.602 257.475 304.488C255.243 304.202 250.788 299.641 249.717 299.861L249.758 297.69" fill="#F5FAFE"/>
<path d="M255.84 199.151C255.84 199.151 246.922 248.723 247.249 249.628C247.576 250.534 249.431 298.514 249.431 298.514C249.431 298.514 254.442 301.893 261.497 298.514L262.6 250.371L270.938 205.418C270.938 205.418 259.379 197.894 255.84 199.151Z" fill="#878ABC"/>
<path d="M255.84 199.151C255.84 199.151 246.922 248.723 247.249 249.628C247.576 250.534 249.431 298.514 249.431 298.514C249.431 298.514 254.442 301.893 261.497 298.514L262.6 250.371L270.938 205.418C270.938 205.418 259.379 197.894 255.84 199.151Z" fill="url(#paint2_linear_2_930)"/>
<path d="M263.001 203.427C263.001 203.427 266.924 255.438 267.358 256.287C267.791 257.135 275.753 303.614 275.753 303.614C275.753 303.614 281.311 307.172 287.867 302.904L282.684 255.071L285.088 209.375C285.088 209.375 266.369 201.713 263.001 203.427Z" fill="#878ABC"/>
<path d="M263.197 203.427C263.197 203.427 267.112 255.438 267.554 256.287C267.995 257.135 275.941 303.614 275.941 303.614C275.941 303.614 281.507 307.172 288.055 302.904L282.856 255.071L285.268 209.375C285.268 209.375 266.54 201.713 263.197 203.427Z" fill="url(#paint3_linear_2_930)"/>
<path d="M76.2746 210.64L81.6206 253.072L64.9858 307.988C64.9858 307.988 68.0512 309.677 74.4027 309.188L96.9883 254.892L97.3071 220.375L104.615 250.175L118.683 308.233C118.683 308.233 125.836 309.808 130.045 306.781L120.784 250.175L112.961 205.296L76.2746 210.64Z" fill="url(#paint4_linear_2_930)"/>
<path d="M288.464 143.623C288.099 143.521 287.723 143.466 287.344 143.46C280.804 143.288 271.478 145.149 266.091 149.172C259.453 154.149 256.903 162.945 256.38 171.203C255.856 179.461 256.927 187.85 255.628 196.034C254.753 201.566 253.102 208.127 257.099 212.06C258.617 213.372 260.41 214.328 262.347 214.859C268.069 216.801 272.671 216.825 278.524 216.948C278.99 216.948 287.875 217.054 287.851 216.785C287.851 216.719 286.445 201.371 285.595 194.557C284.744 187.743 294.922 163.745 293.638 154.361C293.09 150.24 292.175 144.651 288.464 143.623Z" fill="#8CC5F9"/>
<path d="M269.287 164.064C269.287 164.064 266.745 168.021 266.319 168.021C265.894 168.021 239.835 162.48 239.835 162.48C239.835 162.48 237.276 159.07 234.284 158.637C232.167 158.343 229.159 157.364 228.726 156.932C228.293 156.499 228.562 158.898 230.442 159.918C230.745 160.09 232.134 160.734 231.881 161.232C231.628 161.73 230.32 161.469 229.993 161.452C228.889 161.395 227.794 161.248 226.723 161.093C225.652 160.938 223.813 160.416 224.41 162.276C224.565 162.758 224.867 163.19 225.023 163.672C225.091 164.184 225.273 164.674 225.554 165.108C225.847 165.356 226.199 165.524 226.576 165.598C227.27 165.82 227.935 166.127 228.554 166.511C229.337 166.848 230.162 167.078 231.006 167.197C231.946 167.458 232.903 167.654 233.859 167.825C235.832 168.207 237.834 168.414 239.843 168.445C242.835 168.445 261.202 179.11 266.328 179.11C271.453 179.11 277.428 172.289 277.428 172.289C277.428 172.289 276.685 166.446 273.856 164.675C271.028 162.905 269.287 164.064 269.287 164.064Z" fill="#F5FAFE"/>
<path d="M264.611 114.72C263.23 118.849 263.982 122.627 261.39 126.585C259.756 129.033 260.704 129.351 261.194 131.783C261.619 133.913 259.053 138.605 263.753 139.029C268.453 139.453 271.02 142.44 271.87 146.275C271.87 146.275 274.003 143.721 276.57 140.31C279.137 136.899 276.145 134.761 275.287 128.796C274.428 122.831 273.578 116.002 270.554 113.904C267.529 111.807 265.469 112.166 264.611 114.72Z" fill="#F5FAFE"/>
<path d="M265.036 112.166C265.036 112.166 262.903 114.296 265.461 116.002C268.02 117.707 271.87 118.131 271.445 121.975C271.02 125.818 271.445 130.069 272.728 131.766C274.012 133.464 276.145 138.156 274.862 140.742C273.578 143.329 268.878 142.024 269.736 147.564C270.595 153.105 271.445 158.221 268.878 158.221C268.878 158.221 269.311 162.489 273.578 157.797C277.845 153.105 276.57 148.005 281.27 146.283C285.971 144.561 288.954 144.578 289.813 141.167C290.671 137.756 288.954 132.191 289.813 128.804C290.671 125.418 290.63 121.983 288.104 116.866C285.578 111.75 281.695 109.188 278.704 109.188C275.712 109.188 265.895 110.885 265.036 112.166Z" fill="#878ABC"/>
<path d="M76.3809 126.577C76.8305 127.572 78.3837 127.621 79.1766 126.862C79.5383 126.447 79.8 125.955 79.9416 125.423C80.0833 124.891 80.1012 124.334 79.994 123.794C79.8632 122.709 79.4872 121.656 79.4218 120.53C79.3839 120.406 79.3799 120.275 79.4101 120.149C79.4404 120.023 79.5038 119.907 79.5939 119.814C79.6839 119.721 79.7973 119.653 79.9223 119.618C80.0473 119.584 80.1792 119.583 80.3046 119.616C81.776 119.665 83.5089 120.245 84.5471 119.192C85.1602 118.572 85.3645 117.478 86.182 117.185C86.8686 116.94 87.5879 117.389 88.2337 117.731C90.0321 118.662 93.2609 119.274 94.25 116.915C94.7078 115.83 94.3481 114.508 94.4462 113.366C94.5443 112.223 95.329 110.567 94.5606 109.416C94.3154 109.041 93.8903 108.715 93.8903 108.258C93.9651 107.889 94.1437 107.549 94.4053 107.278C94.7555 106.777 94.9384 106.179 94.9281 105.568C94.9179 104.957 94.7149 104.365 94.3481 103.876C92.5229 105.082 90.4401 105.845 88.2664 106.103C84.5798 106.528 80.5417 105.549 77.3373 107.409C76.2435 108.111 75.3245 109.053 74.6503 110.163C73.976 111.273 73.5643 112.522 73.4464 113.815C73.408 114.593 73.2985 115.366 73.1194 116.124C72.6698 117.576 71.3619 117.527 70.6099 118.613C70.2282 119.263 69.9965 119.99 69.9314 120.741C69.8664 121.492 69.9697 122.248 70.2339 122.954C70.5308 123.507 70.6773 124.129 70.6589 124.757C70.5022 125.214 70.2937 125.652 70.0377 126.063C69.3755 127.54 70.3728 129.204 71.4028 130.453C72.7515 132.085 74.2229 133.717 75.6616 135.251C76.1602 135.781 76.6016 136.466 77.3619 136.679C77.9014 136.826 79.7324 136.352 78.6697 135.936" fill="url(#paint5_linear_2_930)"/>
<path d="M265.036 112.166C265.036 112.166 262.903 114.296 265.461 116.002C268.02 117.707 271.87 118.131 271.445 121.975C271.02 125.818 271.445 130.069 272.728 131.766C274.012 133.464 276.145 138.156 274.862 140.742C273.578 143.329 268.878 142.024 269.736 147.564C270.595 153.105 271.445 158.221 268.878 158.221C268.878 158.221 269.311 162.489 273.578 157.797C277.845 153.105 276.57 148.005 281.27 146.283C285.971 144.561 288.954 144.578 289.813 141.167C290.671 137.756 288.954 132.191 289.813 128.804C290.671 125.418 290.63 121.983 288.104 116.866C285.578 111.75 281.695 109.188 278.704 109.188C275.712 109.188 265.895 110.885 265.036 112.166Z" fill="url(#paint6_linear_2_930)"/>
<path d="M289.355 146.275C289.355 146.275 286.371 144.994 282.954 147.556C279.537 150.118 268.919 164.61 268.919 164.61C268.919 164.61 272.336 164.186 274.903 168.021C277.469 171.856 276.611 174.418 276.611 174.418C276.611 174.418 288.995 167.597 290.704 162.905C292.412 158.213 292.796 153.521 289.355 146.275Z" fill="#8CC5F9"/>
<path d="M239.606 304.708C239.034 305.181 238.412 305.834 238.584 306.56C238.685 306.885 238.885 307.17 239.156 307.376C240.464 308.527 242.344 308.698 244.061 308.747C249.753 308.88 255.434 308.182 260.924 306.674C261.028 306.666 261.128 306.636 261.219 306.586C261.309 306.537 261.389 306.468 261.451 306.386C261.514 306.303 261.558 306.209 261.581 306.108C261.605 306.007 261.607 305.903 261.587 305.801C261.612 304.585 261.366 303.378 260.867 302.268C259.036 303.255 256.78 302.619 254.867 301.754C252.276 300.563 250.118 299.257 247.298 300.171C244.48 301.207 241.874 302.744 239.606 304.708Z" fill="#878ABC"/>
<path d="M287.36 301.901L287.883 309.245C286.616 309.998 285.144 310.337 283.674 310.216C281.45 309.938 276.995 305.377 275.924 305.597L275.965 303.427" fill="#F5FAFE"/>
<path d="M265.813 310.412C265.232 310.885 264.619 311.538 264.791 312.264C264.893 312.586 265.089 312.87 265.355 313.08C266.671 314.23 268.551 314.402 270.26 314.443C275.949 314.578 281.627 313.883 287.115 312.378C287.294 312.345 287.461 312.263 287.597 312.142C287.736 311.957 287.8 311.727 287.777 311.497C287.801 310.281 287.555 309.074 287.058 307.964C285.227 308.959 282.971 308.323 281.066 307.45C278.467 306.258 276.317 304.953 273.497 305.867C270.683 306.909 268.08 308.449 265.813 310.412Z" fill="#878ABC"/>
</g>
<defs>
<linearGradient id="paint0_linear_2_930" x1="83.1901" y1="71.432" x2="182.835" y2="71.432" gradientUnits="userSpaceOnUse">
<stop stop-color="#010101" stop-opacity="0"/>
<stop offset="0.95" stop-color="#010101"/>
</linearGradient>
<linearGradient id="paint1_linear_2_930" x1="22466.4" y1="7004" x2="29264.2" y2="3959.91" gradientUnits="userSpaceOnUse">
<stop stop-color="#010101" stop-opacity="0"/>
<stop offset="0.95" stop-color="#010101"/>
</linearGradient>
<linearGradient id="paint2_linear_2_930" x1="8741.78" y1="31227.1" x2="9428.78" y2="31227.1" gradientUnits="userSpaceOnUse">
<stop stop-color="#010101" stop-opacity="0"/>
<stop offset="0.95" stop-color="#010101"/>
</linearGradient>
<linearGradient id="paint3_linear_2_930" x1="9658.82" y1="32054.8" x2="10414.8" y2="32054.8" gradientUnits="userSpaceOnUse">
<stop stop-color="#010101" stop-opacity="0"/>
<stop offset="0.95" stop-color="#010101"/>
</linearGradient>
<linearGradient id="paint4_linear_2_930" x1="8881.84" y1="33138.2" x2="14061.9" y2="33138.2" gradientUnits="userSpaceOnUse">
<stop stop-color="#010101" stop-opacity="0"/>
<stop offset="0.95" stop-color="#010101"/>
</linearGradient>
<linearGradient id="paint5_linear_2_930" x1="3619.32" y1="4990" x2="4390.28" y2="4990" gradientUnits="userSpaceOnUse">
<stop stop-color="#010101" stop-opacity="0"/>
<stop offset="0.95" stop-color="#010101"/>
</linearGradient>
<linearGradient id="paint6_linear_2_930" x1="10167.3" y1="8560.92" x2="11001.6" y2="8560.92" gradientUnits="userSpaceOnUse">
<stop stop-color="#010101" stop-opacity="0"/>
<stop offset="0.95" stop-color="#010101"/>
</linearGradient>
<clipPath id="clip0_2_930">
<rect width="353" height="329" fill="white"/>
</clipPath>
</defs>
</svg>
