<svg width="172" height="134" viewBox="0 0 172 134" fill="none" xmlns="http://www.w3.org/2000/svg">
<g clip-path="url(#clip0_2_862)">
<path opacity="0.18" d="M166.547 115.304C165.195 117.712 163.646 120.043 161.624 121.923C160.448 122.999 159.161 123.948 157.784 124.752C156.751 125.377 155.68 125.939 154.601 126.475C147.902 129.814 140.858 132.409 133.426 133.404C125.677 134.447 117.805 133.987 110.079 133.034C99.6809 131.758 89.3856 129.58 78.9324 128.968C71.3933 128.521 63.8286 128.887 56.3193 129.453C49.4927 129.963 42.5168 130.627 35.7628 129.669C34.5681 129.499 33.3777 129.278 32.1959 128.997C21.8792 126.539 12.9364 119.43 7.47512 110.365C2.71357 102.465 -2.64103 87.4403 1.52746 78.5793C5.969 69.144 18.0009 62.7376 25.8813 56.5565C29.0727 54.0552 32.23 51.2986 34.0476 47.6785C36.07 43.6415 36.2193 38.9706 37.0598 34.5337C39.7819 20.1681 50.6917 7.63165 64.5752 2.91825C84.0992 -3.71369 107.668 0.684916 119.188 18.9089C119.757 19.8022 120.286 20.7126 120.775 21.64C124.048 27.6934 127.38 34.2828 129.91 40.6212C132.47 47.0702 138.016 52.5323 143.136 57.0287C148.773 62.0059 154.899 66.4342 160.203 71.7602C165.506 77.0862 170.042 83.5139 171.518 90.8733C173.135 99.1941 170.712 107.902 166.547 115.304Z" fill="#8CC5F9"/>
<path opacity="0.18" d="M157.779 124.752C156.747 125.377 155.676 125.939 154.596 126.475C147.898 129.814 140.854 132.409 133.421 133.404C125.673 134.447 117.801 133.987 110.074 133.034C99.6766 131.758 89.3812 129.58 78.928 128.968C71.3889 128.521 63.8242 128.887 56.315 129.453C49.4884 129.963 42.5125 130.627 35.7584 129.669L34.0774 107.906L119.576 87.8785L157.779 124.752Z" fill="#8CC5F9"/>
<path d="M33.1474 99.6279L85.9083 75.7078C86.4756 75.3984 87.0989 75.2045 87.742 75.1373C88.3851 75.0702 89.0351 75.131 89.6544 75.3164L119.794 79.396C121.5 79.9107 121.074 86.917 119.58 87.8784L70.5741 119.115C69.6089 119.732 68.5104 120.111 67.3693 120.22C66.2283 120.329 65.0775 120.167 64.0121 119.745L34.0775 107.902C32.4349 107.255 31.5986 100.474 33.1474 99.6279Z" fill="white"/>
<path d="M33.1474 99.6279L85.9083 75.7078C86.4756 75.3984 87.0989 75.2045 87.742 75.1373C88.3851 75.0702 89.0351 75.131 89.6544 75.3164L119.794 79.396C121.5 79.9107 121.074 86.917 119.58 87.8784L70.5741 119.115C69.6089 119.732 68.5104 120.111 67.3693 120.22C66.2283 120.329 65.0775 120.167 64.0121 119.745L34.0775 107.902C32.4349 107.255 31.5986 100.474 33.1474 99.6279Z" fill="url(#paint0_linear_2_862)"/>
<path d="M33.8556 99.024L85.9083 70.5862C86.4756 70.2769 87.0989 70.0829 87.742 70.0158C88.385 69.9486 89.0351 70.0095 89.6544 70.1949L119.056 79.0006C119.439 79.1154 119.781 79.3374 120.041 79.6402C120.301 79.943 120.469 80.3139 120.524 80.7089C120.58 81.1038 120.52 81.5063 120.353 81.8686C120.185 82.2308 119.917 82.5376 119.58 82.7526L70.5741 113.994C69.6076 114.607 68.509 114.984 67.3684 115.093C66.2278 115.201 65.0776 115.039 64.012 114.619L34.0775 102.78C33.7104 102.633 33.3928 102.385 33.1617 102.065C32.9306 101.745 32.7956 101.366 32.7723 100.972C32.7491 100.579 32.8386 100.186 33.0304 99.8414C33.2222 99.4964 33.5084 99.213 33.8556 99.024Z" fill="white"/>
<path opacity="0.52" d="M36.7442 98.5857L85.2769 72.075C85.8054 71.7866 86.386 71.6057 86.9851 71.5429C87.5843 71.4801 88.1899 71.5366 88.767 71.7091L116.201 79.9193C116.559 80.0265 116.878 80.2338 117.121 80.5165C117.364 80.7993 117.52 81.1455 117.571 81.5142C117.622 81.8829 117.566 82.2585 117.41 82.5964C117.253 82.9343 117.003 83.2202 116.688 83.4203L70.9752 112.539C70.0757 113.113 69.0522 113.465 67.9892 113.567C66.9261 113.669 65.854 113.518 64.8612 113.126L36.9532 102.065C36.6168 101.926 36.3265 101.695 36.1154 101.399C35.9043 101.103 35.7808 100.753 35.759 100.391C35.7372 100.028 35.818 99.6666 35.9922 99.3475C36.1663 99.0283 36.4269 98.7644 36.7442 98.5857Z" fill="#8CC5F9"/>
<path d="M78.8768 77.4393L85.3492 73.866L112.028 84.1095L104.869 88.087L78.8768 77.4393Z" fill="white"/>
<path d="M70.1302 82.6418L76.6026 79.0685L103.282 89.3163L96.1224 93.2938L70.1302 82.6418Z" fill="white"/>
<path d="M61.3837 87.8487L67.8561 84.2754L94.5395 94.5189L87.3802 98.4964L61.3837 87.8487Z" fill="white"/>
<path d="M52.6371 93.0514L59.1138 89.478L85.7929 99.7259L78.6336 103.703L52.6371 93.0514Z" fill="white"/>
<path d="M43.895 98.2583L50.3675 94.6849L77.0466 104.928L69.8872 108.906L43.895 98.2583Z" fill="white"/>
<path d="M51.6985 44.6326C51.6985 44.6326 48.8527 45.0835 47.7306 46.2831C46.6085 47.4827 40.5243 57.1392 40.5243 57.1392C40.5243 57.1392 38.2416 59.5385 40.5243 60.317C42.8069 61.0954 43.4682 60.853 43.5877 60.317C43.7072 59.781 43.9461 58.9387 43.9461 58.9387C43.9461 58.9387 44.1893 58.8196 44.488 58.2198C44.6834 57.8714 44.7862 57.4789 44.7866 57.0797C44.7329 56.813 44.6528 56.5522 44.5477 56.3012L49.6676 49.9543L51.3743 48.6356L51.6985 44.6326Z" fill="#F5FAFE"/>
<path d="M70.5996 40.0511C70.6282 40.2382 70.6106 40.4295 70.5484 40.6084C70.4267 40.7906 70.2683 40.9456 70.0833 41.0635C69.6704 41.486 69.3016 41.9493 68.9825 42.4461C68.6071 42.9098 68.0354 43.2969 67.4594 43.165C67.2976 43.1061 67.1304 43.0634 66.9602 43.0374C66.7904 43.0524 66.6276 43.1119 66.4883 43.2097C66.349 43.3076 66.238 43.4404 66.1666 43.5947C66.028 43.9087 65.836 44.1966 65.5991 44.4454C65.0957 44.8708 64.3575 44.6709 63.7431 44.471C63.3884 44.3953 63.0714 44.1981 62.8472 43.9137C62.7483 43.72 62.6972 43.5057 62.6978 43.2884C62.6978 42.7694 62.7277 42.2504 62.7277 41.7357C62.7277 40.0724 62.2157 38.4006 62.5357 36.767C62.7117 35.8674 63.1488 35.0391 63.7927 34.3849C64.4367 33.7307 65.2592 33.2796 66.158 33.0874C66.9521 32.9705 67.7631 33.0874 68.4915 33.4237C69.2199 33.76 69.8339 34.301 70.2583 34.9804C71.1414 36.3501 70.5228 38.4729 70.5996 40.0511Z" fill="#F5FAFE"/>
<path d="M70.0749 51.1583C70.0749 51.1583 72.9591 54.2722 73.9788 54.3913C74.9986 54.5104 82.9387 45.8281 82.9387 45.8281C83.2124 45.7951 83.4714 45.6864 83.6863 45.5142C83.9012 45.342 84.0635 45.1133 84.1547 44.8539C84.3317 44.3448 84.3929 43.8028 84.3339 43.2672C84.3302 43.1112 84.3044 42.9565 84.2571 42.8078C84.1443 42.5655 83.978 42.3517 83.7707 42.1824C83.5517 41.9562 83.2965 41.7679 83.0155 41.6252C82.8769 41.5518 82.7223 41.5134 82.5654 41.5134C82.4085 41.5134 82.2539 41.5518 82.1153 41.6252C81.9335 41.7564 81.7869 41.9302 81.6886 42.1314C81.3814 42.6546 81.07 43.2842 81.3217 43.833C81.379 43.9231 81.4154 44.0248 81.4283 44.1308C81.4124 44.2598 81.3485 44.3783 81.2492 44.4626C79.2165 46.6745 76.8215 48.5258 74.1666 49.9374C74.088 49.9864 73.9987 50.0156 73.9063 50.0225C73.7864 50.0128 73.6728 49.9651 73.582 49.8864C73.0103 49.4908 72.4514 49.0824 71.8967 48.6655C71.1299 49.368 70.5106 50.2153 70.0749 51.1583Z" fill="#F5FAFE"/>
<path d="M61.1362 43.4458L60.8418 43.9903C60.1165 45.3658 59.3884 46.7384 58.6573 48.1081C58.2733 48.8271 57.7571 50.4776 57.0104 50.869C56.6619 51.0225 56.2738 51.0627 55.9011 50.9838C54.7918 50.8349 53.4179 50.133 52.6073 49.9246C52.3232 49.8297 52.0215 49.7992 51.7241 49.8353C51.3023 49.9766 50.9373 50.2496 50.683 50.6137C49.3661 52.1338 47.9752 53.5858 46.5103 54.9698C46.2195 55.2755 45.8791 55.53 45.5034 55.7227C44.6799 56.0886 43.7967 55.8376 42.9434 55.4122C42.6062 55.2462 42.2786 55.0616 41.9621 54.8592C41.7671 54.7606 41.6087 54.6027 41.5098 54.4083C41.369 54.0424 41.6677 53.6681 41.9365 53.3788C42.9913 52.2375 43.8999 50.97 44.6415 49.6055C45.3284 48.3294 45.9215 46.9553 47.0137 46.0365C49.1684 44.2455 52.795 44.4965 55.4787 44.1605C55.9438 44.1009 58.4227 44.0414 59.9459 43.8201C60.5602 43.7308 61.0168 43.616 61.1277 43.4671L61.1362 43.4458Z" fill="#8CC5F9"/>
<path d="M65.8551 65.4728C65.8551 65.4728 73.8038 66.1236 74.7638 68.2208C75.7238 70.3181 76.6881 83.2501 76.6881 83.2501L72.1782 84.7645L71.1585 73.3256C71.1585 73.3256 58.2606 72.8534 56.6904 71.1518C55.7175 70.0659 55.0441 68.7467 54.7363 67.3233L65.8551 65.4728Z" fill="#282328"/>
<path d="M65.3473 66.9957C65.3473 66.9957 64.3105 78.5793 62.9879 79.5407C61.6652 80.5021 53.8189 91.7963 53.8189 91.7963L49.6419 89.4822L56.1442 77.2648L56.9677 67.8295L65.3473 66.9957Z" fill="#878ABC"/>
<path d="M68.573 48.006C68.573 48.006 68.573 48.0443 68.573 48.0656C68.3341 49.6693 68.0909 51.2773 67.852 52.8768L67.8008 53.2171C67.4139 55.795 67.0285 58.3715 66.6445 60.9466C66.3757 62.7247 66.1112 64.5029 65.6845 66.2428C65.6377 66.5186 65.5234 66.7787 65.3517 67C65.1299 67.2071 64.8529 67.3459 64.5539 67.3999C62.6254 67.9146 60.5987 67.855 58.5806 67.787C57.2864 67.7989 55.996 67.646 54.7407 67.3318C54.2585 67.1872 53.7295 66.9064 53.6228 66.4385C53.595 66.2737 53.595 66.1055 53.6228 65.9407C53.8532 64.1371 54.4761 62.3887 54.6084 60.5722C54.6596 59.7725 54.6084 58.9642 54.6852 58.1645C54.7492 57.5009 54.89 56.8458 55.0052 56.1907C55.0692 55.8503 55.1247 55.51 55.1588 55.1654C55.2313 54.4465 55.2143 53.7234 55.3295 53.0087C55.4556 52.3246 55.6456 51.6538 55.8969 51.0051C55.8969 50.9753 55.8969 50.9498 55.9268 50.92C56.3534 49.7374 56.7801 48.559 57.2366 47.402C57.564 46.5263 58.0167 45.7024 58.5806 44.9559C58.7858 44.7024 59.0175 44.4714 59.2718 44.2668C59.48 44.1027 59.7045 43.9601 59.9417 43.8414C60.2422 43.682 60.5662 43.5714 60.9017 43.5138C60.9751 43.5011 61.0491 43.4926 61.1235 43.4883C61.6097 43.455 62.098 43.4793 62.5784 43.5606C63.9182 43.735 65.8552 43.7606 67.1992 44.505C67.7448 44.7839 68.185 45.2317 68.4536 45.7812C68.7073 46.4959 68.7488 47.2684 68.573 48.006Z" fill="#8CC5F9"/>
<path d="M82.5631 46.8276C82.593 47.2998 82.2218 47.6784 81.8719 48.0187L75.1947 54.3061C75.0966 54.3997 74.9942 54.4933 74.8875 54.5826C74.7051 54.7462 74.4958 54.8771 74.2688 54.9697C74.0915 55.0311 73.906 55.0655 73.7184 55.0718C73.4169 55.0715 73.1163 55.0372 72.8225 54.9697C71.034 54.6181 69.3384 53.8996 67.8433 52.8598C65.71 51.3071 64.5068 49.0014 65.7441 45.9386C65.8462 45.6713 65.9718 45.4136 66.1196 45.1686C66.2137 44.9603 66.3659 44.7834 66.5581 44.6589C66.7502 44.5345 66.9742 44.4677 67.2033 44.4667C67.6513 44.5298 68.0709 44.722 68.4108 45.0197C69.4817 45.8279 70.5057 46.6872 71.5254 47.5721C71.8241 47.8231 72.1483 48.1038 72.4854 48.3676C72.9639 48.7622 73.4971 49.086 74.0683 49.329C74.1947 49.3878 74.3352 49.4099 74.4736 49.3928C74.5886 49.3572 74.6948 49.2978 74.7851 49.2184C76.6766 47.7692 78.5724 46.3299 80.4725 44.9006C80.5498 44.8228 80.6435 44.7634 80.7469 44.7266C80.8503 44.6898 80.9606 44.6765 81.0698 44.6879C81.2128 44.748 81.3325 44.8524 81.4111 44.9857L82.1621 45.9939C82.2547 46.1126 82.3388 46.2377 82.4138 46.3682C82.4983 46.5079 82.5493 46.6651 82.5631 46.8276Z" fill="#8CC5F9"/>
<path d="M61.9854 51.4093C61.6147 51.5882 61.3015 51.8666 61.0808 52.2133C60.4664 53.1023 60.0227 54.1871 59.1694 54.8848C58.0345 55.8079 56.4217 55.7994 55.0009 56.1907C55.0649 55.8504 55.1204 55.5101 55.1545 55.1655C55.227 54.4466 55.21 53.7234 55.3252 53.0088C55.4513 52.3247 55.6413 51.6539 55.8926 51.0051C54.7833 50.8562 53.4095 50.1543 52.5988 49.9459C52.3147 49.851 52.013 49.8205 51.7156 49.8566C51.2938 49.9979 50.9288 50.2709 50.6746 50.635C49.3576 52.1551 47.9667 53.6071 46.5018 54.9911C46.2111 55.2968 45.8706 55.5513 45.4949 55.7441C44.6714 56.1099 43.7882 55.8589 42.9349 55.4335C42.9305 55.4082 42.9305 55.3823 42.9349 55.3569C42.9399 55.2129 42.9993 55.0762 43.1013 54.9741C45.2175 52.3326 47.5946 49.9099 50.1967 47.7423C52.5263 45.7515 55.5385 45.0453 58.4867 44.4455L59.2803 44.2881C59.8008 44.1903 60.3214 44.1009 60.8462 44.0329C61.9137 43.8691 63 43.8691 64.0675 44.0329C64.8565 44.201 65.5763 44.6029 66.1325 45.1857C67.02 46.0365 67.7538 47.168 68.5858 48.0061L68.8119 48.2273C70.6272 49.832 72.5534 51.3075 74.5761 52.6429C74.714 52.7618 74.8889 52.8294 75.0711 52.8343C75.2216 52.8059 75.3607 52.735 75.4721 52.6301C77.4936 51.022 79.4117 49.2886 81.215 47.4403C81.542 47.0865 81.8942 46.7567 82.2688 46.4534C82.3107 46.4196 82.3566 46.391 82.4054 46.3683C82.4898 46.508 82.5409 46.6652 82.5547 46.8277C82.5846 47.2999 82.2134 47.6785 81.8635 48.0188L75.1948 54.3062C75.0967 54.3998 74.9943 54.4934 74.8876 54.5827L74.8193 54.6168C74.4651 54.7974 74.097 54.9496 73.7185 55.0719C73.417 55.0716 73.1164 55.0373 72.8226 54.9698C71.0341 54.6182 69.3385 53.8997 67.8434 52.8599L67.7922 53.2002C67.7144 53.1471 67.6403 53.0888 67.5704 53.0258C67.2973 52.7833 67.0882 52.4813 66.8237 52.2303C65.9704 51.422 64.6904 51.2731 63.5299 51.1966C61.1832 51.0477 61.4392 53.264 61.1235 55.1272C60.7651 57.2571 60.5105 59.401 60.3598 61.5592C60.2488 63.1077 60.1934 64.6902 59.6515 66.145C59.5189 66.6138 59.2261 67.0215 58.8238 67.2978C58.5277 67.4433 58.2025 67.5204 57.8723 67.5233C56.7994 67.5903 55.7223 67.5073 54.6724 67.2766C54.4698 67.2589 54.2743 67.1934 54.1021 67.0853C53.93 66.9773 53.7862 66.83 53.6825 66.6555C53.6109 66.4168 53.6109 66.1625 53.6825 65.9238L55.5342 55.8632" fill="url(#paint1_linear_2_862)"/>
<path d="M49.3135 90.8052C48.921 91.1625 48.4303 91.4688 48.2554 91.9665C48.1707 92.2422 48.156 92.5346 48.2127 92.8173C48.3834 93.851 49.0362 94.7358 49.6634 95.5781L50.3887 96.5438L51.5961 98.156C51.8716 98.5733 52.2216 98.9367 52.6286 99.228C53.2875 99.5612 54.0252 99.7083 54.7619 99.6534C55.0801 99.6792 55.4 99.6372 55.7006 99.5301C55.8487 99.4739 55.9758 99.3735 56.0644 99.2425C56.153 99.1115 56.1988 98.9564 56.1955 98.7984C56.1529 98.373 55.6878 98.1603 55.3422 97.9476C54.2542 97.2414 53.8574 95.8717 53.5417 94.6167C53.3241 93.7659 53.115 92.8343 53.3369 91.9708C53.4137 91.6772 53.5417 91.3965 53.6057 91.0987C53.6423 90.9549 53.6487 90.805 53.6245 90.6586C53.6003 90.5122 53.5459 90.3724 53.4649 90.2479C53.3144 90.0787 53.1237 89.95 52.9102 89.8736C52.264 89.594 51.5886 89.3871 50.8964 89.2567C50.1369 89.0483 49.8042 90.3543 49.3135 90.8052Z" fill="#F5FAFE"/>
<path d="M73.4626 85.9258C73.4413 86.5171 73.5949 87.202 74.1111 87.487C74.365 87.6184 74.6488 87.6815 74.9346 87.6699C75.5926 87.6828 76.2458 87.5552 76.8503 87.2956C77.9127 86.8361 78.7788 85.9938 79.8369 85.5557C80.1428 85.4615 80.4311 85.3178 80.6902 85.1303C80.8188 85.0347 80.9119 84.8994 80.9552 84.7455C80.9984 84.5916 80.9892 84.4277 80.9292 84.2795C80.8225 84.0966 80.6134 83.9945 80.4769 83.8541C80.3404 83.7137 80.2806 83.4287 80.0972 83.3011C79.7814 83.0671 79.3505 83.3011 79.0135 83.5053C78.3777 83.8847 77.6704 84.1294 76.9356 84.2242C76.8329 84.2455 76.7269 84.2455 76.6242 84.2242C76.2316 84.1008 76.2444 83.4968 75.9074 83.2628C75.421 82.9352 74.1538 83.6286 73.8167 84.0328C73.437 84.4794 73.4754 85.3345 73.4626 85.9258Z" fill="#F5FAFE"/>
<path d="M71.7858 36.6182C71.1416 37.5158 70.0237 38.0135 69.4861 38.9749C68.9485 39.9363 69.0851 41.4039 68.2403 42.2164C67.8937 42.5193 67.4699 42.721 67.0158 42.7992C66.4995 42.9183 65.9406 42.9609 65.4328 43.0927C65.0991 43.1549 64.7974 43.3309 64.5795 43.5904C64.3193 43.9563 64.5795 44.471 64.6051 44.8666C64.6873 45.4854 64.6554 46.114 64.5113 46.7214C64.3833 47.1169 64.1736 47.4814 63.8959 47.7913C63.6181 48.1012 63.2784 48.3497 62.8985 48.5208C62.1366 48.8641 61.3001 49.0104 60.4665 48.9462C60.2827 48.9179 60.0946 48.943 59.9246 49.0185C59.8246 49.1045 59.7442 49.2109 59.689 49.3305C59.6338 49.4501 59.605 49.5802 59.6046 49.7119C59.4169 51.0519 59.0756 52.4812 58.0431 53.3576C57.5896 53.7211 57.065 53.9862 56.5028 54.136C55.5083 54.4367 54.4546 54.4876 53.4356 54.2842C52.4165 54.0809 51.4637 53.6296 50.6618 52.9704C50.2234 52.5903 49.8476 52.1439 49.5482 51.6475C49.1573 51.0132 48.9031 50.3048 48.8018 49.5674C48.7004 48.8299 48.7541 48.0794 48.9594 47.3637C49.3861 46.0365 50.3461 44.7518 50.0218 43.399C49.9024 42.9098 49.6208 42.4759 49.4714 41.9952C49.3015 41.2699 49.2927 40.5164 49.4458 39.7874C49.4989 39.1278 49.6955 38.4876 50.0218 37.9114C50.3937 37.3811 50.9023 36.9608 51.4938 36.6948C53.93 35.4909 56.8996 35.6781 59.2804 34.3593C61.3625 33.2022 62.8558 30.9561 65.1854 30.4414C65.8662 30.29 66.5692 30.2655 67.259 30.3691C67.9373 30.484 68.3171 30.9519 68.94 31.1518C69.3168 31.2114 69.6977 31.2413 70.0792 31.2412C70.6726 31.3816 71.1863 31.7501 71.5085 32.2664C71.8203 32.6965 72.0515 33.1793 72.1912 33.6915C72.3458 34.1787 72.3896 34.6941 72.3195 35.2004C72.2494 35.7066 72.0671 36.191 71.7858 36.6182Z" fill="#08090A"/>
<path d="M71.7859 36.6182C71.1416 37.5157 70.0238 38.0135 69.4862 38.9749C68.9486 39.9363 69.0851 41.4039 68.2403 42.2164C67.8937 42.5193 67.47 42.7209 67.0158 42.7992C66.4995 42.9183 65.9406 42.9608 65.4329 43.0927C65.0991 43.1549 64.7975 43.3308 64.5796 43.5904C64.3193 43.9563 64.5796 44.471 64.6052 44.8666C64.6873 45.4854 64.6555 46.1139 64.5113 46.7213C64.3833 47.1169 64.1737 47.4813 63.8959 47.7912C63.6182 48.1011 63.2784 48.3496 62.8985 48.5208C62.1366 48.8641 61.3002 49.0104 60.4665 48.9462C60.2827 48.9179 60.0946 48.943 59.9247 49.0185C59.8246 49.1044 59.7443 49.2108 59.6891 49.3305C59.6338 49.4501 59.6051 49.5802 59.6047 49.7119C59.417 51.0519 59.0756 52.4812 58.0431 53.3575C57.5896 53.721 57.065 53.9862 56.5029 54.136C55.5083 54.4366 54.4547 54.4875 53.4356 54.2842C52.4166 54.0808 51.4637 53.6295 50.6619 52.9704C50.2235 52.5903 49.8477 52.1438 49.5483 51.6474C50.329 52.0022 51.1615 52.2305 52.0144 52.3238C52.9675 52.3633 53.9194 52.2189 54.8175 51.8984C55.8382 51.6166 56.778 51.0993 57.561 50.3883C57.9488 50.0295 58.2437 49.5825 58.4205 49.0855C58.5973 48.5884 58.6508 48.056 58.5764 47.5338C59.484 47.4483 60.3297 47.0379 60.9572 46.3786C61.5847 45.7194 61.9515 44.8558 61.9897 43.9477C61.2879 44.0982 60.5739 44.1851 59.8564 44.2072C61.8658 43.5486 63.6488 42.3399 65.002 40.719C64.8192 40.9769 64.6834 41.2649 64.6009 41.5698C64.999 41.6384 65.4076 41.6134 65.7943 41.4967C66.181 41.38 66.535 41.1749 66.8281 40.8976C67.1171 40.6173 67.3469 40.2819 67.5037 39.9115C67.6605 39.541 67.7413 39.143 67.7411 38.7409C67.7193 38.539 67.7563 38.3352 67.8478 38.1538C67.9499 38.0353 68.0806 37.9445 68.2275 37.8901C69.4638 37.2779 70.5117 36.3447 71.2611 35.1888C71.5317 34.6659 71.8457 34.1665 72.1997 33.6957C72.3525 34.1829 72.3946 34.6979 72.323 35.2034C72.2514 35.7089 72.0679 36.1921 71.7859 36.6182Z" fill="url(#paint2_linear_2_862)"/>
<path d="M98.0851 27.9741L77.247 37.0946V19.8576L98.0851 10.7371V27.9741Z" stroke="white" stroke-miterlimit="10"/>
<path d="M95.6703 23.2479C95.6551 23.7496 95.4902 24.2355 95.1967 24.6432C94.9157 25.0658 94.5167 25.3971 94.0489 25.5961L82.9216 30.0202C82.0256 30.3776 81.3003 29.9011 81.3003 28.9567C81.3154 28.455 81.4803 27.9692 81.7739 27.5614C82.0559 27.1388 82.4545 26.8064 82.9216 26.6043L83.3013 26.4554C83.2215 26.1789 83.1812 25.8924 83.1819 25.6046C83.2151 24.6155 83.5401 23.6582 84.1163 22.8523C84.6698 22.0164 85.4535 21.3577 86.3733 20.955L87.3205 20.5807C88.5535 20.0915 89.6245 20.402 90.1578 21.2656C90.4056 21.0271 90.6947 20.8354 91.0111 20.6998L91.2543 20.602C92.3167 20.1766 93.1785 20.7423 93.1785 21.8781V21.9802C93.1773 22.1781 93.1529 22.3751 93.106 22.5673L94.0276 22.2014C94.9449 21.8271 95.6703 22.3035 95.6703 23.2479Z" fill="white"/>
<path opacity="0.82" d="M110.625 62.2822C110.624 63.0161 110.373 63.728 109.913 64.3002C109.452 64.8725 108.809 65.2709 108.09 65.4297C107.372 65.5885 106.62 65.4982 105.96 65.1737C105.3 64.8491 104.771 64.3097 104.46 63.6447C104.148 62.9796 104.074 62.2286 104.249 61.5158C104.424 60.8029 104.837 60.1708 105.421 59.724C106.005 59.2771 106.724 59.0421 107.46 59.0579C108.196 59.0736 108.904 59.3392 109.468 59.8107C109.831 60.1134 110.122 60.4916 110.321 60.9186C110.521 61.3456 110.625 61.8111 110.625 62.2822Z" fill="#8CC5F9"/>
<path opacity="0.55" d="M109.652 60.8828C109.653 61.4965 109.478 62.0977 109.148 62.6157C108.818 63.1338 108.347 63.547 107.789 63.8067C107.231 64.0664 106.611 64.1618 106 64.0816C105.39 64.0015 104.816 63.7491 104.344 63.3543C104.111 62.6889 104.103 61.9655 104.321 61.2951C104.54 60.6247 104.972 60.044 105.553 59.6421C106.134 59.2401 106.831 59.039 107.537 59.0694C108.244 59.0999 108.92 59.3603 109.464 59.8108C109.588 60.1547 109.651 60.5173 109.652 60.8828Z" fill="white"/>
<path opacity="0.82" d="M106.904 51.8176C106.904 52.1366 106.809 52.4485 106.631 52.7137C106.454 52.979 106.201 53.1856 105.905 53.3075C105.609 53.4294 105.284 53.4611 104.97 53.3985C104.656 53.336 104.368 53.182 104.142 52.9561C103.916 52.7302 103.763 52.4425 103.701 52.1295C103.639 51.8165 103.671 51.4922 103.794 51.1976C103.918 50.9031 104.125 50.6516 104.392 50.475C104.658 50.2983 104.971 50.2045 105.291 50.2053C105.72 50.2065 106.13 50.3768 106.432 50.679C106.734 50.9813 106.904 51.3907 106.904 51.8176Z" fill="#8CC5F9"/>
<path opacity="0.55" d="M106.418 51.1199C106.417 51.4262 106.329 51.726 106.164 51.9841C105.998 52.2423 105.762 52.4481 105.484 52.5775C105.206 52.707 104.896 52.7547 104.591 52.715C104.287 52.6753 104 52.55 103.764 52.3536C103.683 52.1115 103.661 51.8537 103.699 51.6014C103.737 51.3491 103.835 51.1094 103.984 50.902C104.133 50.6945 104.329 50.5252 104.556 50.4078C104.784 50.2904 105.035 50.2283 105.291 50.2266C105.671 50.2257 106.039 50.36 106.328 50.6052C106.387 50.7706 106.417 50.9445 106.418 51.1199Z" fill="white"/>
<path opacity="0.82" d="M121.564 44.8794C121.564 45.2462 121.439 45.602 121.208 45.888C120.978 46.174 120.657 46.3732 120.298 46.4527C119.938 46.5322 119.563 46.4872 119.233 46.3251C118.903 46.1631 118.638 45.8937 118.482 45.5614C118.327 45.2291 118.289 44.8537 118.376 44.4974C118.463 44.141 118.669 43.8248 118.961 43.6011C119.252 43.3774 119.612 43.2595 119.98 43.2668C120.347 43.2741 120.702 43.4063 120.984 43.6415C121.166 43.7929 121.312 43.9822 121.412 44.1961C121.512 44.41 121.564 44.6433 121.564 44.8794Z" fill="#8CC5F9"/>
<path opacity="0.55" d="M121.074 44.1775C121.074 44.4841 120.986 44.7845 120.821 45.0433C120.656 45.302 120.421 45.5085 120.142 45.6385C119.863 45.7684 119.553 45.8165 119.248 45.7769C118.943 45.7374 118.656 45.612 118.42 45.4154C118.303 45.0825 118.298 44.7205 118.407 44.3847C118.516 44.049 118.732 43.7581 119.023 43.5568C119.313 43.3554 119.662 43.2546 120.016 43.2699C120.369 43.2853 120.708 43.4158 120.98 43.6415C121.041 43.8136 121.073 43.9948 121.074 44.1775Z" fill="white"/>
<g opacity="0.82">
<path opacity="0.82" d="M110.369 61.3082L110.032 61.1848L113.317 51.9877L106.567 51.6474L106.584 51.2943L113.816 51.6559L110.369 61.3082Z" fill="#8CC5F9"/>
</g>
<path d="M118.258 51.9963H113.565V51.6432H117.985L119.533 45.828L119.879 45.9216L118.258 51.9963Z" fill="#8CC5F9"/>
</g>
<defs>
<linearGradient id="paint0_linear_2_862" x1="70.8216" y1="71.59" x2="93.2803" y2="154.346" gradientUnits="userSpaceOnUse">
<stop offset="0.01"/>
<stop offset="0.13" stop-opacity="0.69"/>
<stop offset="0.25" stop-opacity="0.32"/>
<stop offset="1" stop-opacity="0"/>
</linearGradient>
<linearGradient id="paint1_linear_2_862" x1="5989.02" y1="379.538" x2="6268.34" y2="7091.76" gradientUnits="userSpaceOnUse">
<stop offset="0.01"/>
<stop offset="0.13" stop-opacity="0.69"/>
<stop offset="0.25" stop-opacity="0.32"/>
<stop offset="1" stop-opacity="0"/>
</linearGradient>
<linearGradient id="paint2_linear_2_862" x1="3258.03" y1="1912.78" x2="4034.52" y2="2827.47" gradientUnits="userSpaceOnUse">
<stop offset="0.01"/>
<stop offset="0.13" stop-opacity="0.69"/>
<stop offset="0.25" stop-opacity="0.32"/>
<stop offset="1" stop-opacity="0"/>
</linearGradient>
<clipPath id="clip0_2_862">
<rect width="172" height="134" fill="white"/>
</clipPath>
</defs>
</svg>
