<svg width="35" height="34" viewBox="0 0 35 34" fill="none" xmlns="http://www.w3.org/2000/svg">
<path d="M17.4001 0.305176C8.1216 0.305176 0.600098 7.82668 0.600098 17.1052C0.600098 26.3837 8.1216 33.9052 17.4001 33.9052C26.6786 33.9052 34.2001 26.3837 34.2001 17.1052C34.2001 7.82668 26.6786 0.305176 17.4001 0.305176ZM24.2339 14.0672C24.2409 14.2107 24.2426 14.3542 24.2426 14.4942C24.2426 18.8692 20.9159 23.9109 14.8294 23.9109C13.0309 23.9139 11.2698 23.3974 9.75785 22.4234C10.0151 22.4549 10.2793 22.4672 10.5471 22.4672C12.0976 22.4672 13.5239 21.9404 14.6561 21.0514C13.9661 21.0379 13.2975 20.8094 12.7435 20.3978C12.1896 19.9863 11.7778 19.4121 11.5656 18.7554C12.0611 18.8497 12.5716 18.8299 13.0583 18.6977C12.3094 18.5462 11.6359 18.1404 11.1521 17.5491C10.6682 16.9577 10.4038 16.2173 10.4036 15.4532V15.4129C10.8498 15.6597 11.3608 15.8102 11.9033 15.8277C11.2012 15.3603 10.7042 14.6424 10.5139 13.8207C10.3236 12.999 10.4544 12.1356 10.8796 11.4072C11.7108 12.4292 12.7473 13.2652 13.9221 13.8612C15.0969 14.4572 16.3837 14.7998 17.6994 14.8669C17.5321 14.157 17.6041 13.4116 17.9041 12.7468C18.2042 12.082 18.7154 11.5349 19.3585 11.1906C20.0015 10.8464 20.7403 10.7242 21.4599 10.8431C22.1796 10.962 22.8397 11.3153 23.3379 11.8482C24.0784 11.7017 24.7886 11.43 25.4379 11.0449C25.191 11.8117 24.6743 12.4627 23.9836 12.8772C24.6396 12.7982 25.2801 12.6218 25.8841 12.3539C25.4405 13.0187 24.8816 13.5989 24.2339 14.0672Z" fill="white"/>
</svg>
