<svg width="133" height="116" viewBox="0 0 133 116" fill="none" xmlns="http://www.w3.org/2000/svg">
<g clip-path="url(#clip0_2_1837)">
<path opacity="0.18" d="M73.6737 0.698445C71.999 0.998903 70.3469 1.41429 68.7292 1.94167C58.005 5.43994 37.6309 10.8599 29.6828 18.8408C20.4682 28.116 23.2953 40.3207 14.0415 49.541C6.37576 57.1689 -0.0195606 64.6361 4.49577e-05 76.2094C0.0314138 96.603 17.645 103.69 34.1137 108.827C53.6251 114.906 74.3756 117.702 94.7222 114.926C103.349 113.749 112.057 111.486 119.096 106.368C129.624 98.7208 134.686 84.6806 132.498 71.9817C131.388 65.5381 129.448 59.7142 128.918 53.0941C128.228 44.4661 129.683 35.6106 127.15 27.1747C122.739 12.4796 107.301 3.64374 92.197 0.969051C86.0879 -0.121218 79.7593 -0.407512 73.6737 0.698445Z" fill="#8CC5F9"/>
<path d="M122.142 15.6009V92.1551C122.142 93.4387 121.633 94.6696 120.725 95.5772C119.818 96.4848 118.587 96.9947 117.304 96.9947H15.6962C14.4129 96.9947 13.1822 96.4848 12.2748 95.5772C11.3673 94.6696 10.8575 93.4387 10.8575 92.1551V17.0324C10.8575 15.7489 11.3673 14.5179 12.2748 13.6103C13.1822 12.7027 14.4129 12.1929 15.6962 12.1929H118.735C119.639 12.1929 120.505 12.5519 121.144 13.1911C121.783 13.8302 122.142 14.6971 122.142 15.6009Z" fill="white"/>
<path opacity="0.33" d="M77.3399 28.8022H28.7692V58.6592H77.3399V28.8022Z" fill="#D7D9E1"/>
<path opacity="0.33" d="M77.3399 61.5215H28.7692V91.3784H77.3399V61.5215Z" fill="#D7D9E1"/>
<path d="M122.142 15.6755V15.801H10.8575V15.6755C10.8575 14.392 11.3673 13.161 12.2748 12.2534C13.1822 11.3458 14.4129 10.8359 15.6962 10.8359H117.304C117.939 10.8354 118.569 10.9603 119.156 11.2033C119.743 11.4463 120.277 11.8028 120.726 12.2523C121.176 12.7018 121.532 13.2355 121.775 13.8229C122.018 14.4103 122.143 15.0398 122.142 15.6755Z" fill="#8CC5F9"/>
<path d="M25.8715 15.8013V96.9832H15.6962C14.4129 96.9832 13.1822 96.4733 12.2748 95.5658C11.3673 94.6582 10.8575 93.4272 10.8575 92.1437V15.8013H25.8715Z" fill="#D7D9E1"/>
<path d="M23.5541 36.2456H15.7158V37.0221H23.5541V36.2456Z" fill="white"/>
<path d="M23.558 33.9512H13.8964V34.9356H23.558V33.9512Z" fill="white"/>
<path d="M23.5541 45.4229H15.7158V46.1994H23.5541V45.4229Z" fill="white"/>
<path d="M23.558 43.1245H13.8964V44.1089H23.558V43.1245Z" fill="white"/>
<path d="M23.5541 54.5957H15.7158V55.3722H23.5541V54.5957Z" fill="white"/>
<path d="M23.558 52.3013H13.8964V53.2856H23.558V52.3013Z" fill="white"/>
<path d="M23.5541 63.769H15.7158V64.5456H23.5541V63.769Z" fill="white"/>
<path d="M23.558 61.4746H13.8964V62.459H23.558V61.4746Z" fill="white"/>
<path d="M128.714 24.8489V41.0579C128.714 42.1829 128.282 43.2648 127.505 44.079C126.729 44.8932 125.67 45.3773 124.546 45.4307C124.477 45.4347 124.407 45.4347 124.338 45.4307H97.5375L95.2319 50.788L92.8008 45.4307H55.8875C54.9392 45.43 54.0167 45.1215 53.2587 44.5515C52.5007 43.9814 51.9481 43.1807 51.6841 42.2697C51.5746 41.8753 51.5218 41.4672 51.5272 41.0579V24.8489C51.5272 23.6905 51.986 22.5792 52.8031 21.7582C53.6203 20.9373 54.7293 20.4734 55.8875 20.4683H124.338C124.913 20.4683 125.483 20.5816 126.014 20.8018C126.545 21.022 127.027 21.3447 127.434 21.7516C127.84 22.1584 128.163 22.6414 128.382 23.1728C128.602 23.7043 128.715 24.2739 128.714 24.8489Z" fill="#8CC5F9"/>
<path opacity="0.33" d="M128.714 26.4878V41.0574C128.714 42.1824 128.282 43.2643 127.506 44.0785C126.729 44.8928 125.67 45.3768 124.546 45.4303C124.477 45.4342 124.407 45.4342 124.338 45.4303H97.5375L95.2319 50.7875L92.8008 45.4303H55.8875C54.9392 45.4295 54.0167 45.121 53.2587 44.551C52.5007 43.981 51.9481 43.1803 51.6841 42.2693C51.5746 41.8748 51.5218 41.4668 51.5272 41.0574V26.4878H128.714Z" fill="white"/>
<path d="M16.0373 14.4165C16.648 14.4165 17.143 13.9213 17.143 13.3105C17.143 12.6997 16.648 12.2046 16.0373 12.2046C15.4266 12.2046 14.9315 12.6997 14.9315 13.3105C14.9315 13.9213 15.4266 14.4165 16.0373 14.4165Z" fill="white"/>
<path d="M19.829 14.4165C20.4397 14.4165 20.9348 13.9213 20.9348 13.3105C20.9348 12.6997 20.4397 12.2046 19.829 12.2046C19.2183 12.2046 18.7233 12.6997 18.7233 13.3105C18.7233 13.9213 19.2183 14.4165 19.829 14.4165Z" fill="white"/>
<path d="M23.6208 14.4165C24.2315 14.4165 24.7265 13.9213 24.7265 13.3105C24.7265 12.6997 24.2315 12.2046 23.6208 12.2046C23.0101 12.2046 22.515 12.6997 22.515 13.3105C22.515 13.9213 23.0101 14.4165 23.6208 14.4165Z" fill="white"/>
<path d="M104.121 92.1944C104.121 96.3986 102.451 100.431 99.479 103.403C96.5067 106.376 92.4754 108.046 88.272 108.046C84.0685 108.046 80.0372 106.376 77.065 103.403C74.0927 100.431 72.4229 96.3986 72.4229 92.1944C72.4229 91.7865 72.4385 91.3826 72.4699 90.9826C72.7854 86.897 74.6704 83.0923 77.7295 80.3666C80.7887 77.6409 84.7843 76.2059 88.8782 76.3627C92.9722 76.5194 96.8465 78.2557 99.6883 81.2074C102.53 84.159 104.119 88.0967 104.121 92.1944Z" fill="#8CC5F9"/>
<path opacity="0.14" d="M81.6099 99.3948C81.0845 101.685 81.7276 104.129 81.257 106.411C77.5957 104.6 74.772 101.448 73.3717 97.6104C73.2962 96.8266 73.316 96.0364 73.4305 95.2573C73.5364 94.4141 73.6932 93.5396 73.454 92.7238C73.2266 92.0956 72.8937 91.5107 72.4698 90.9943C72.6458 88.6765 73.33 86.426 74.474 84.4027C75.618 82.3794 77.1935 80.633 79.0887 79.2876C79.1082 79.3939 79.1082 79.5029 79.0887 79.6092L78.426 82.629C78.5593 83.5235 78.5593 84.4328 78.426 85.3272C78.3534 85.7734 78.1842 86.1984 77.9302 86.5723C77.6762 86.9463 77.3436 87.2602 76.9556 87.4921C76.663 87.6129 76.3787 87.7531 76.1047 87.9117C75.8414 88.1299 75.6219 88.3961 75.4577 88.6961C75.0199 89.3074 74.6934 89.9911 74.4931 90.7158C74.3962 91.0785 74.3914 91.4596 74.479 91.8247C74.5667 92.1897 74.744 92.5271 74.995 92.8062L79.4141 91.9473C79.8768 91.8571 80.4375 91.7943 80.7551 92.1434C81.1472 92.5591 80.8963 93.2219 80.9786 93.7827C81.0845 94.4965 81.7197 95.0102 82.0138 95.673C82.5236 96.8221 81.9001 98.1438 81.6099 99.3948Z" fill="#020202"/>
<path opacity="0.4" d="M75.744 84.0529C75.9488 84.4966 76.2751 84.8732 76.685 85.1392C78.5383 86.5299 80.7762 87.3134 83.0921 87.3825C82.3432 87.5668 81.5511 87.7747 81.0179 88.3355C80.4846 88.8963 80.3709 89.9042 80.9904 90.3788C81.2085 90.5245 81.4563 90.6196 81.7158 90.6572C82.896 90.8891 84.1174 90.7901 85.2448 90.3709C85.9271 90.116 86.5976 89.7395 87.3269 89.7474C87.9109 89.7957 88.4798 89.9583 89.0012 90.2258C89.7855 90.5474 90.605 90.8376 91.4206 90.6729C92.2361 90.5082 92.989 89.7238 92.8047 88.9081C92.7616 88.7159 92.6792 88.5159 92.7733 88.3394C92.8525 88.2336 92.964 88.1565 93.0909 88.1198L100.592 84.7823C101.066 84.5666 101.612 84.2646 101.662 83.747C101.713 83.2293 101.188 82.7861 100.702 82.5351C98.1178 81.186 95.1025 81.0134 92.1891 80.8723L87.0171 80.6173C84.5155 80.4958 81.9903 80.3742 79.4925 80.6683C78.626 80.7703 77.0967 80.7821 76.4341 81.4292C75.8577 81.9782 75.4773 83.343 75.744 84.0529Z" fill="#020202"/>
<path opacity="0.14" d="M104.121 92.1943C104.124 94.5918 103.581 96.9585 102.535 99.1156C101.489 101.273 99.9665 103.164 98.0825 104.646C97.8648 104.502 97.6781 104.315 97.5335 104.097C97.0591 103.379 97.2159 102.246 97.9805 101.842C97.7139 101.983 96.667 101.638 96.3533 101.591L94.7221 101.336C93.9379 101.215 92.5812 101.265 92.1224 100.481C92.0695 100.372 92.0079 100.267 91.9381 100.167C91.8409 100.07 91.7266 99.9918 91.6009 99.936C91.1108 99.6968 90.5344 99.4262 90.4246 98.8928C90.3422 98.5006 90.5383 98.0535 90.3383 97.7162C90.2756 97.6064 90.1776 97.5202 90.1148 97.4143C90.0458 97.2535 90.0196 97.0776 90.0389 96.9037C90.0581 96.7298 90.1221 96.5638 90.2246 96.422C90.9108 95.218 92.3381 94.6376 93.7026 94.4062C95.0672 94.1748 96.4827 94.2062 97.8159 93.8219C98.655 93.5787 99.451 93.1708 100.318 93.0375C100.796 92.9708 101.392 92.9238 101.568 92.4728C101.666 92.2178 101.568 91.9237 101.67 91.6649C101.71 91.555 101.784 91.4609 101.823 91.3511C101.854 91.2589 101.863 91.161 101.851 91.0647C101.838 90.9684 101.805 90.8761 101.752 90.7945C101.699 90.7129 101.629 90.6441 101.546 90.5931C101.464 90.5422 101.371 90.5104 101.274 90.5001C101.384 90.202 101.478 89.8216 101.243 89.6098C101.161 89.5498 101.066 89.5103 100.966 89.4946C100.865 89.4789 100.763 89.4875 100.667 89.5196C100.098 89.6647 99.6862 90.1432 99.2079 90.4805C97.6394 91.606 95.4593 91.206 94.1339 89.8844C93.9193 89.6959 93.7663 89.4472 93.6948 89.1706C93.6749 88.9349 93.7288 88.6988 93.8489 88.4951C93.969 88.2913 94.1495 88.1299 94.3653 88.0332C94.7983 87.8464 95.2662 87.7541 95.7377 87.7626L95.2083 84.3114C92.5733 85.0174 91.5029 82.5074 91.1265 80.421C90.75 78.3346 92.2322 77.5894 94.1418 77.4521C97.0893 78.6282 99.6162 80.6619 101.395 83.2902C103.174 85.9185 104.124 89.0203 104.121 92.1943Z" fill="#020202"/>
<path d="M94.7376 56.6496L94.3702 56.6787C94.1413 56.6968 93.9705 56.897 93.9886 57.1258L94.1808 59.5576C94.1989 59.7865 94.399 59.9574 94.6279 59.9393L94.9953 59.9102C95.2241 59.8922 95.395 59.6919 95.3769 59.4631L95.1847 57.0313C95.1666 56.8024 94.9664 56.6315 94.7376 56.6496Z" fill="#8CC5F9"/>
<path d="M92.1617 55.678L92.3303 56.6154C92.3852 56.9173 92.6048 57.1173 92.84 57.0781C93.7497 56.9213 95.9769 56.6114 97.5806 57.0193C98.4521 57.2412 99.3043 57.5323 100.129 57.8899C100.455 58.0351 100.78 57.6703 100.725 57.2232L100.149 52.2347C100.094 51.7954 99.7098 51.5758 99.4314 51.8425C98.2825 52.8857 95.6201 54.9603 92.6361 54.9486C92.3068 54.9368 92.095 55.2976 92.1617 55.678Z" fill="#8CC5F9"/>
<path d="M100.377 57.9175C101.206 57.852 101.767 56.3933 101.63 54.6594C101.493 52.9255 100.71 51.5731 99.8809 51.6386C99.0519 51.7042 98.491 53.1629 98.628 54.8968C98.7651 56.6306 99.5482 57.9831 100.377 57.9175Z" fill="#8CC5F9"/>
<path d="M100.377 57.9175C101.206 57.852 101.767 56.3933 101.63 54.6594C101.493 52.9255 100.71 51.5731 99.8809 51.6386C99.0519 51.7042 98.491 53.1629 98.628 54.8968C98.7651 56.6306 99.5482 57.9831 100.377 57.9175Z" fill="url(#paint0_linear_2_1837)"/>
<path d="M82.4294 61.502C80.5787 61.7647 76.1557 72.1615 77.4732 74.5421C78.7907 76.9226 86.0643 79.6993 86.0643 79.6993L85.6722 75.601C85.6722 75.601 80.6963 73.4832 81.0923 72.1615C81.4884 70.8398 84.3508 65.9062 84.3508 65.9062L82.4294 61.502Z" fill="#8CC5F9"/>
<path d="M94.2673 61.2197C94.2673 60.9609 95.9887 61.6864 96.0671 61.7296C97.0554 62.2754 97.9925 62.9094 98.8668 63.6238C99.651 64.2513 100.471 64.8631 101.219 65.5573C101.898 66.2005 102.815 66.9927 102.651 68.0359C102.521 68.8202 101.67 69.3379 100.87 69.3418C100.069 69.2803 99.2966 69.0099 98.6315 68.5575C97.2356 67.7535 95.9142 66.8868 94.5575 66.0044L94.2673 61.2197Z" fill="#8CC5F9"/>
<path d="M83.5705 61.2003H93.734C94.0897 61.1929 94.4432 61.2572 94.7735 61.3893C95.1038 61.5214 95.4041 61.7187 95.6566 61.9694C95.9091 62.2201 96.1085 62.519 96.243 62.8484C96.3775 63.1778 96.4444 63.531 96.4396 63.8867C96.4396 63.8867 94.5025 71.801 94.479 74.4561C94.479 75.9111 94.9378 80.2565 94.9378 80.2565H82.3902C82.3902 80.2565 82.9705 75.715 82.9588 74.1894C82.9353 71.601 80.8845 63.8867 80.8845 63.8867C80.8798 63.5326 80.946 63.1812 81.0793 62.8531C81.2126 62.525 81.4103 62.227 81.6606 61.9766C81.911 61.7261 82.209 61.5284 82.537 61.3951C82.865 61.2618 83.2164 61.1955 83.5705 61.2003Z" fill="#8CC5F9"/>
<path d="M95.8985 56.7097C95.7258 56.4677 95.4935 56.2745 95.2241 56.1488C94.9681 56.0734 94.6959 56.0734 94.4399 56.1488C94.0927 56.2301 93.7677 56.3868 93.4878 56.6077C93.208 56.8287 92.9801 57.1085 92.8205 57.4273C92.7529 57.5584 92.7166 57.7034 92.7146 57.8509C92.7274 57.9977 92.7659 58.141 92.8283 58.2745C93.0714 58.8902 93.3929 59.5804 94.0321 59.7608C94.3704 59.8035 94.7107 59.8284 95.0516 59.8353C95.2751 59.8706 95.4868 59.9569 95.7103 59.9961C96.275 60.0981 97.4082 59.7138 97.4513 59.0039C97.4709 58.6549 97.0239 58.1882 96.8357 57.9176C96.5298 57.4979 96.2279 57.0979 95.8985 56.7097Z" fill="#F5FAFE"/>
<path d="M90.2168 62.6867C90.1747 62.9841 90.0205 63.2543 89.7858 63.4417C89.551 63.6291 89.2535 63.7196 88.9542 63.6946C87.7073 63.6357 87.6171 62.6867 87.6171 62.6867V57.7373H90.2168V62.6867Z" fill="#F5FAFE"/>
<path d="M87.6014 60.1843C87.6014 60.1843 89.2287 62.7217 90.2011 61.502V59.5176L87.6014 60.1843Z" fill="url(#paint1_linear_2_1837)"/>
<path d="M86.5232 58.9218C87.1741 60.9415 90.409 61.0003 91.4951 59.3963C92.0759 58.421 92.2584 57.2594 92.0049 56.153C91.8325 55.064 91.4995 54.0067 91.0168 53.0155C90.6835 52.3919 90.3462 51.8389 89.5895 51.7448C88.7259 51.6888 87.8643 51.8821 87.1074 52.3017C86.3903 52.6884 85.829 53.3113 85.5189 54.0647C85.2087 54.8182 85.1687 55.6558 85.4056 56.4353C85.5357 56.8255 85.6997 57.2034 85.8958 57.5648C86.1396 58.0003 86.3494 58.4539 86.5232 58.9218Z" fill="#F5FAFE"/>
<path d="M97.169 71.1851H80.1436V81.3387H97.169V71.1851Z" fill="#8CC5F9"/>
<g opacity="0.1">
<path opacity="0.1" d="M97.169 71.1851H80.1436V81.3387H97.169V71.1851Z" fill="#020202"/>
</g>
<path d="M87.5152 86.7549C87.1601 87.0348 86.7631 87.2572 86.3389 87.4137C85.4253 87.8059 83.6215 88.5119 83.8921 89.2962C84.2568 90.3551 85.5272 90.2767 86.3702 90.0257C87.6867 89.5743 88.9398 88.9562 90.0992 88.1863L87.5152 86.7549Z" fill="#473F47"/>
<path d="M89.6992 83.9941C92.7891 81.739 94.4045 80.0723 97.8747 77.9623C98.7021 77.4603 99.2667 77.3113 100.698 77.8721C101.917 78.3506 101.788 80.4488 101.121 81.3233C99.1256 83.947 91.4323 87.5708 89.8757 88.1199C89.2091 88.3552 86.8368 86.359 87.7975 85.406C88.4 84.8944 89.0353 84.4228 89.6992 83.9941Z" fill="#473F47"/>
<path d="M88.272 88.3396C88.7515 88.9569 89.2987 89.5186 89.9031 90.0142C90.9501 90.826 91.6755 91.0927 92.5264 90.6966C93.7576 90.124 92.6244 88.9122 91.6676 87.9513C90.9377 87.1887 90.1204 86.5147 89.2326 85.9434L88.272 88.3396Z" fill="#473F47"/>
<path d="M88.4288 85.3745L89.7503 86.4687C90.0228 86.6894 90.2561 86.9546 90.4404 87.2531C90.8678 88.0374 89.3856 89.6885 88.421 88.7277C87.4564 87.7668 86.5938 86.7393 86.5938 86.7393L88.4288 85.3745Z" fill="#F5FAFE"/>
<path d="M84.4998 87.096C80.9081 85.2881 78.7045 84.637 76.3949 81.3858C75.8068 80.5544 75.5715 79.1857 75.7989 78.5072C76.0812 77.6758 77.2968 77.1738 78.7319 77.515C79.9318 77.8052 88.0014 84.1272 89.264 85.3194C89.8051 85.8332 88.1504 88.402 86.7937 87.9588C86.0047 87.7409 85.2369 87.4521 84.4998 87.096Z" fill="#473F47"/>
<path d="M91.8872 52.8231C91.748 53.1587 91.5426 53.4628 91.2834 53.7173C90.7562 54.2268 90.0805 54.5551 89.3542 54.6546C88.2955 54.8232 87.2211 54.6546 86.1546 54.5487C86.1306 54.7208 86.0587 54.8828 85.9471 55.0159C85.8354 55.1491 85.6886 55.2481 85.5233 55.3017C85.6844 56.0471 85.8993 56.7797 86.1663 57.494C86.429 58.1921 86.8055 58.8431 87.0878 59.5255C86.2095 58.9176 85.5194 57.8823 84.892 57.043C84.5517 56.6442 84.2789 56.1924 84.0842 55.7057C83.987 55.4618 83.9494 55.1983 83.9747 54.937C83.9999 54.6757 84.0872 54.4243 84.2293 54.2036C84.3759 54.0557 84.4954 53.8831 84.5822 53.6938C84.6116 53.529 84.6116 53.3604 84.5822 53.1957C84.5687 52.8044 84.6435 52.415 84.8009 52.0565C84.9584 51.6981 85.1946 51.3797 85.4919 51.125C86.0931 50.6214 86.7991 50.2583 87.5583 50.0621C88.2081 49.8336 88.9019 49.7584 89.5855 49.8425C90.5737 50.0111 91.7578 51.1014 91.9656 52.0858C92.0102 52.334 91.983 52.5898 91.8872 52.8231Z" fill="#473F47"/>
<path d="M85.8251 57.5962C85.711 57.6164 85.602 57.6591 85.5044 57.7217C85.4068 57.7843 85.3226 57.8656 85.2566 57.9609C85.2202 58.0354 85.199 58.1165 85.1942 58.1993C85.1895 58.2822 85.2014 58.3651 85.2291 58.4433C85.2849 58.6008 85.3685 58.7469 85.4762 58.8747C85.5305 58.9526 85.5982 59.0203 85.6761 59.0747C85.8078 59.1484 85.9566 59.1863 86.1075 59.1845C86.2251 59.1845 86.3427 59.1845 86.4604 59.1845C86.5205 59.1809 86.5793 59.1649 86.6329 59.1375C86.688 59.0959 86.7291 59.0384 86.7505 58.9727C86.8311 58.7269 86.8311 58.4617 86.7505 58.2158C86.6959 57.984 86.584 57.7696 86.4251 57.5923C86.2722 57.4471 86.033 57.5295 85.8251 57.5962Z" fill="#F5FAFE"/>
<path d="M98.9413 67.4044C99.168 67.9429 99.5139 68.4229 99.953 68.8084C100.264 69.0403 100.636 69.1749 101.023 69.1953C101.41 69.2156 101.794 69.1207 102.128 68.9226C102.461 68.7245 102.728 68.4321 102.895 68.0823C103.062 67.7325 103.122 67.341 103.066 66.9573C102.937 66.3925 102.684 65.8634 102.325 65.4082C100.788 63.1335 99.208 60.885 97.5846 58.6626C97.1533 58.9097 95.6241 59.4705 95.5182 59.9607C95.4123 60.451 96.3338 61.9216 96.5612 62.4236C96.9533 63.2708 97.3454 64.1179 97.7376 64.9572C98.1297 65.7964 98.6904 66.5729 98.9413 67.4044Z" fill="#8CC5F9"/>
<path d="M94.5561 58.7954L94.0575 58.9613C93.8377 59.0344 93.7187 59.272 93.7919 59.4919L93.9577 59.9906C94.0308 60.2105 94.2684 60.3295 94.4882 60.2563L94.9868 60.0904C95.2066 60.0173 95.3256 59.7797 95.2525 59.5598L95.0866 59.0611C95.0135 58.8412 94.7759 58.7223 94.5561 58.7954Z" fill="#8CC5F9"/>
<path d="M54.2172 22.9897L56.0601 24.8291" stroke="white" stroke-width="2" stroke-miterlimit="10" stroke-linecap="round"/>
<path d="M56.1698 22.9897L54.3269 24.8291" stroke="white" stroke-width="2" stroke-miterlimit="10" stroke-linecap="round"/>
<path d="M100.682 32.0059H59.7733C59.2363 32.0059 58.8009 32.4413 58.8009 32.9785C58.8009 33.5156 59.2363 33.9511 59.7733 33.9511H100.682C101.219 33.9511 101.655 33.5156 101.655 32.9785C101.655 32.4413 101.219 32.0059 100.682 32.0059Z" fill="white"/>
<path d="M100.682 36.8574H59.7733C59.2363 36.8574 58.8009 37.2929 58.8009 37.83C58.8009 38.3672 59.2363 38.8026 59.7733 38.8026H100.682C101.219 38.8026 101.655 38.3672 101.655 37.83C101.655 37.2929 101.219 36.8574 100.682 36.8574Z" fill="white"/>
</g>
<defs>
<linearGradient id="paint0_linear_2_1837" x1="96.5147" y1="53.2355" x2="118.505" y2="62.5979" gradientUnits="userSpaceOnUse">
<stop offset="0.01"/>
<stop offset="0.08" stop-opacity="0.69"/>
<stop offset="0.21" stop-opacity="0.32"/>
<stop offset="1" stop-opacity="0"/>
</linearGradient>
<linearGradient id="paint1_linear_2_1837" x1="768.219" y1="435.116" x2="760.439" y2="508.977" gradientUnits="userSpaceOnUse">
<stop offset="0.01"/>
<stop offset="0.08" stop-opacity="0.69"/>
<stop offset="0.21" stop-opacity="0.32"/>
<stop offset="1" stop-opacity="0"/>
</linearGradient>
<clipPath id="clip0_2_1837">
<rect width="133" height="116" fill="white"/>
</clipPath>
</defs>
</svg>
