<svg width="35" height="39" viewBox="0 0 35 39" fill="none" xmlns="http://www.w3.org/2000/svg">
<path d="M7.77778 19.5L3.88889 15.6L0 19.5L3.88889 23.4L7.77778 19.5ZM28.6028 11.1345L17.5 0H15.5556V14.8005L6.63056 5.85L3.88889 8.5995L14.7583 19.5L3.88889 30.4005L6.63056 33.15L15.5556 24.1995V39H17.5L28.6028 27.8655L20.2417 19.5L28.6028 11.1345ZM19.4444 7.4685L23.1 11.1345L19.4444 14.8005V7.4685ZM23.1 27.8655L19.4444 31.5315V24.1995L23.1 27.8655ZM31.1111 15.6L27.2222 19.5L31.1111 23.4L35 19.5L31.1111 15.6Z" fill="#8CC5F9"/>
</svg>
