<svg width="19" height="16" viewBox="0 0 19 16" fill="none" xmlns="http://www.w3.org/2000/svg">
<path d="M0.838235 16C0.598739 16 0.39916 15.9385 0.239496 15.8154C0.079832 15.6923 0 15.5385 0 15.3538C0 15.1692 0.0931372 14.9744 0.279412 14.7692L7.22479 7.81538L0.718487 1.2C0.505602 0.974359 0.39916 0.789744 0.39916 0.646154C0.39916 0.461539 0.478992 0.307693 0.638655 0.184617C0.82493 0.0615389 1.02451 0 1.23739 0H3.15336C3.55252 0 3.89846 0.164103 4.19118 0.492309L9.57983 5.87692L14.9685 0.492309C15.1281 0.328206 15.2745 0.205128 15.4076 0.123077C15.5672 0.0410255 15.7668 0 16.0063 0H17.8424C18.0553 0 18.2416 0.0615389 18.4013 0.184617C18.5609 0.307693 18.6408 0.451283 18.6408 0.615386C18.6408 0.820514 18.5476 1.01538 18.3613 1.2L11.7752 7.87692L18.7206 14.7692C18.9069 14.9744 19 15.1692 19 15.3538C19 15.5385 18.9202 15.6923 18.7605 15.8154C18.6008 15.9385 18.4013 16 18.1618 16H16.2059C15.8067 16 15.4608 15.8462 15.1681 15.5385L9.46008 9.84615L3.7521 15.5385C3.59244 15.6821 3.43277 15.7949 3.27311 15.8769C3.14006 15.959 2.95378 16 2.71429 16H0.838235Z" fill="#F5FAFE"/>
</svg>
