<svg width="34" height="34" viewBox="0 0 34 34" fill="none" xmlns="http://www.w3.org/2000/svg">
<path d="M22.25 17.1052C22.25 18.4976 21.6968 19.8329 20.7123 20.8175C19.7277 21.8021 18.3923 22.3552 17 22.3552C15.6076 22.3552 14.2722 21.8021 13.2876 20.8175C12.3031 19.8329 11.75 18.4976 11.75 17.1052C11.75 16.8059 11.7815 16.5137 11.8357 16.2302H9.99995V23.2249C9.99995 23.7114 10.3937 24.1052 10.8802 24.1052H23.1215C23.3546 24.1047 23.5781 24.0118 23.7428 23.8467C23.9075 23.6817 24 23.4581 24 23.2249V16.2302H22.1642C22.2185 16.5137 22.25 16.8059 22.25 17.1052ZM17 20.6052C17.4597 20.6051 17.9149 20.5144 18.3396 20.3384C18.7643 20.1623 19.1502 19.9043 19.4752 19.5792C19.8002 19.254 20.058 18.868 20.2338 18.4432C20.4096 18.0184 20.5001 17.5632 20.5 17.1034C20.4998 16.6437 20.4092 16.1885 20.2331 15.7638C20.0571 15.3391 19.7991 14.9532 19.474 14.6282C19.1488 14.3032 18.7628 14.0454 18.338 13.8696C17.9132 13.6938 17.4579 13.6033 16.9982 13.6034C16.0697 13.6037 15.1793 13.9727 14.523 14.6294C13.8666 15.2861 13.498 16.1767 13.4982 17.1052C13.4984 18.0337 13.8675 18.924 14.5242 19.5804C15.1809 20.2368 16.0715 20.6054 17 20.6052ZM21.2 13.4302H23.2982C23.4376 13.4302 23.5713 13.3749 23.6701 13.2765C23.7688 13.1781 23.8245 13.0446 23.825 12.9052V10.8069C23.825 10.6672 23.7695 10.5332 23.6707 10.4345C23.5719 10.3357 23.4379 10.2802 23.2982 10.2802H21.2C21.0603 10.2802 20.9263 10.3357 20.8275 10.4345C20.7287 10.5332 20.6732 10.6672 20.6732 10.8069V12.9052C20.675 13.1939 20.9112 13.4302 21.2 13.4302ZM17 0.305176C12.5443 0.305176 8.27117 2.07517 5.12056 5.22578C1.96995 8.37639 0.199951 12.6495 0.199951 17.1052C0.199951 21.5608 1.96995 25.834 5.12056 28.9846C8.27117 32.1352 12.5443 33.9052 17 33.9052C19.2062 33.9052 21.3908 33.4706 23.429 32.6264C25.4673 31.7821 27.3193 30.5446 28.8794 28.9846C30.4394 27.4245 31.6769 25.5725 32.5211 23.5343C33.3654 21.496 33.8 19.3114 33.8 17.1052C33.8 14.899 33.3654 12.7144 32.5211 10.6761C31.6769 8.63783 30.4394 6.78581 28.8794 5.22578C27.3193 3.66576 25.4673 2.42828 23.429 1.584C21.3908 0.739721 19.2062 0.305176 17 0.305176ZM25.75 23.9109C25.75 24.9802 24.875 25.8552 23.8057 25.8552H10.1942C9.12495 25.8552 8.24995 24.9802 8.24995 23.9109V10.2994C8.24995 9.23018 9.12495 8.35518 10.1942 8.35518H23.8057C24.875 8.35518 25.75 9.23018 25.75 10.2994V23.9109Z" fill="white"/>
</svg>
