<svg width="232" height="44" viewBox="0 0 232 44" fill="none" xmlns="http://www.w3.org/2000/svg">
<path fill-rule="evenodd" clip-rule="evenodd" d="M56 21.5938L44.6875 2L38.03 13.5312L33.2578 5.26563L26.2131 17.4674L20.7396 7.98699L0 43.909H41.4791L36.6085 35.4727H50.6979L42.6849 21.5938H56Z" fill="#8CC5F9"/>
<path d="M76.2168 17.6924C76.2168 18.6162 76.3708 20.0521 76.6787 22C76.1344 22.1862 75.4326 22.2793 74.5732 22.2793C73.721 22.2793 73.141 22.1862 72.833 22L73.0479 18.541L73.1123 15.4688C71.6514 12.8333 70.7061 11.2077 70.2764 10.5918C69.4958 9.46745 68.9229 8.79069 68.5576 8.56152C68.4215 8.46842 68.0706 8.40039 67.5049 8.35742C67.3831 8.01367 67.333 7.72005 67.3545 7.47656C67.9417 7.14714 68.4645 6.92155 68.9229 6.7998C69.3812 6.6709 69.8037 6.60645 70.1904 6.60645C70.5771 6.60645 70.8278 6.61003 70.9424 6.61719C70.971 6.64583 71.0785 6.74967 71.2646 6.92871C71.4508 7.10059 71.6156 7.2653 71.7588 7.42285C71.902 7.57324 72.1133 7.8418 72.3926 8.22852C72.6719 8.61523 72.9404 9.03776 73.1982 9.49609C73.8356 10.6348 74.5052 12.1172 75.207 13.9434C76.7539 10.4557 77.5596 8.37533 77.624 7.70215C77.6383 7.58757 77.6455 7.39779 77.6455 7.13281C77.6455 6.86784 77.5811 6.63867 77.4521 6.44531C77.4521 6.3737 77.556 6.30924 77.7637 6.25195C77.9714 6.1875 78.1826 6.15527 78.3975 6.15527C79.0348 6.15527 79.5146 6.35938 79.8369 6.76758C80.1663 7.16862 80.3311 7.59115 80.3311 8.03516C80.3311 8.47917 80.2451 8.90885 80.0732 9.32422C79.9085 9.73958 79.6722 10.1693 79.3643 10.6133C79.0635 11.0501 78.7448 11.5013 78.4082 11.9668C77.4772 13.2415 76.7324 14.4876 76.1738 15.7051L76.2168 17.6924ZM98.002 13.9434C98.002 15.9844 97.5436 17.7103 96.627 19.1211C95.7103 20.5247 94.3926 21.4844 92.6738 22C91.8503 22.2435 90.9551 22.3652 89.9883 22.3652C89.0286 22.3652 88.0654 22.1934 87.0986 21.8496C86.1318 21.4987 85.2653 21.0081 84.499 20.3779C83.7399 19.7406 83.1312 18.9277 82.6729 17.9395C82.2145 16.9512 81.9854 15.8626 81.9854 14.6738C81.9854 12.4538 82.4974 10.6527 83.5215 9.27051C84.5456 7.88835 86.0208 6.93945 87.9473 6.42383C88.6133 6.24479 89.3223 6.15527 90.0742 6.15527C90.8333 6.15527 91.596 6.25911 92.3623 6.4668C93.1286 6.67448 93.8483 6.99316 94.5215 7.42285C95.2018 7.85254 95.8034 8.36458 96.3262 8.95898C97.4434 10.2337 98.002 11.8952 98.002 13.9434ZM86.8945 19.0137C87.3385 19.5866 87.8542 20.027 88.4414 20.335C89.0286 20.6429 89.6481 20.7969 90.2998 20.7969C90.9515 20.7969 91.528 20.6787 92.0293 20.4424C92.5378 20.2061 92.9531 19.8945 93.2754 19.5078C93.5977 19.1139 93.8662 18.6484 94.0811 18.1113C94.4678 17.1445 94.6611 15.9987 94.6611 14.6738C94.6611 12.6615 94.1849 11.0036 93.2324 9.7002C92.2799 8.39681 91.1126 7.74512 89.7305 7.74512C89.1862 7.74512 88.6562 7.84538 88.1406 8.0459C87.6322 8.24642 87.1917 8.56868 86.8193 9.0127C86.4541 9.44954 86.1784 9.95443 85.9922 10.5273C85.6341 11.5872 85.4551 12.6865 85.4551 13.8252C85.4551 14.9639 85.584 15.9701 85.8418 16.8438C86.0996 17.7174 86.4505 18.4408 86.8945 19.0137ZM114.008 7.45508C114.008 7.45508 114.011 8.56152 114.019 10.7744C114.019 12.887 113.961 14.4375 113.847 15.4258C113.739 16.4069 113.61 17.2233 113.46 17.875C113.317 18.5195 113.134 19.0745 112.912 19.54C112.69 20.0055 112.418 20.4245 112.096 20.7969C111.781 21.1693 111.408 21.4701 110.979 21.6992C110.112 22.1504 109.117 22.376 107.992 22.376C106.868 22.376 105.919 22.2148 105.146 21.8926C104.379 21.5632 103.702 21.0905 103.115 20.4746C102.535 19.8587 102.077 19.0674 101.74 18.1006C101.411 17.1338 101.246 16.0452 101.246 14.835C101.246 14.8206 101.246 14.8027 101.246 14.7812L101.268 9.92578C101.268 8.99479 101.139 8.42904 100.881 8.22852C100.752 8.12109 100.566 8.03874 100.322 7.98145C100.186 7.80957 100.118 7.5625 100.118 7.24023C100.118 6.91797 100.129 6.70312 100.15 6.5957C100.508 6.52409 101.099 6.48828 101.923 6.48828C102.754 6.48828 103.66 6.52409 104.641 6.5957V8.46484L104.619 13.9434C104.612 14.0938 104.608 14.5342 104.608 15.2646C104.608 15.9951 104.694 16.7614 104.866 17.5635C105.045 18.3656 105.307 18.9922 105.65 19.4434C106.302 20.2812 107.255 20.7002 108.508 20.7002C109.288 20.7002 109.872 20.4603 110.259 19.9805C110.76 19.3646 111.011 17.721 111.011 15.0498V14.2764C110.982 10.7458 110.936 8.37891 110.871 7.17578L110.839 6.57422L113.739 6.42383C113.918 6.61719 114.008 6.96094 114.008 7.45508ZM128.896 20.0986C129.061 20.2633 129.212 20.3851 129.348 20.4639C129.484 20.5355 129.591 20.5749 129.67 20.582C129.749 20.5892 129.86 20.5928 130.003 20.5928C130.153 20.5928 130.357 20.5247 130.615 20.3887L130.959 21.1621C130.479 21.7565 129.888 22.1755 129.187 22.4189C128.893 22.5192 128.657 22.5693 128.478 22.5693C127.797 22.5693 127.224 22.3975 126.759 22.0537C126.293 21.71 125.892 21.3125 125.556 20.8613C125.219 20.4102 124.9 19.8945 124.6 19.3145C124.041 18.2546 123.611 17.1768 123.311 16.0811C122.666 16.167 121.961 16.21 121.194 16.21V18.5732C121.194 19.1533 121.237 20.0807 121.323 21.3555L121.366 22C120.757 22.1862 120.031 22.2793 119.186 22.2793C118.348 22.2793 117.814 22.1862 117.585 22C117.793 20.4889 117.896 19.3359 117.896 18.541V9.92578C117.896 9.28841 117.839 8.88021 117.725 8.70117C117.61 8.52214 117.535 8.40755 117.499 8.35742C117.463 8.30013 117.399 8.24642 117.306 8.19629C117.22 8.139 117.159 8.09961 117.123 8.07812C117.044 8.04232 116.919 7.99577 116.747 7.93848C116.64 7.65918 116.586 7.38346 116.586 7.11133C116.586 6.83203 116.59 6.66016 116.597 6.5957C118.516 6.30208 120.636 6.15527 122.956 6.15527H123.568C125.094 6.18392 126.397 6.5599 127.479 7.2832C128.008 7.64128 128.431 8.10677 128.746 8.67969C129.061 9.2526 129.219 9.90072 129.219 10.624C129.219 11.8271 128.929 12.8548 128.349 13.707C127.776 14.5521 126.827 15.1895 125.502 15.6191C126.061 16.3711 126.53 17.0156 126.909 17.5527C127.289 18.0898 127.597 18.516 127.833 18.8311C128.069 19.1462 128.263 19.3932 128.413 19.5723C128.571 19.7513 128.732 19.9268 128.896 20.0986ZM126.039 10.6455C126.039 8.75488 124.915 7.80957 122.666 7.80957C122.243 7.80957 121.753 7.83822 121.194 7.89551V14.5449C123.729 14.4375 125.244 13.7643 125.738 12.5254C125.939 12.0026 126.039 11.376 126.039 10.6455ZM145.192 6.14453L145.955 6.15527C148.046 6.2054 149.5 6.5957 150.316 7.32617C151.025 7.95638 151.38 8.90169 151.38 10.1621C151.38 10.7995 151.183 11.4476 150.789 12.1064C150.402 12.7653 149.912 13.3132 149.317 13.75C150.213 13.8932 150.972 14.3158 151.595 15.0176C152.218 15.7122 152.529 16.5859 152.529 17.6387C152.529 20.8542 150.152 22.4619 145.396 22.4619C144.122 22.4619 142.636 22.3438 140.938 22.1074C140.631 22.0645 140.43 21.6634 140.337 20.9043C140.308 20.6823 140.294 20.4424 140.294 20.1846L140.423 13.0947C140.423 10.3018 140.283 8.69401 140.004 8.27148C139.868 8.07812 139.628 7.96712 139.284 7.93848C139.184 7.69499 139.134 7.44076 139.134 7.17578C139.134 6.90365 139.141 6.73535 139.155 6.6709V6.5957C139.692 6.48112 140.545 6.37728 141.712 6.28418C142.886 6.19108 144.047 6.14453 145.192 6.14453ZM143.57 18.4336L143.549 19.1855C143.549 20.0234 143.696 20.5355 143.989 20.7217C144.469 20.7718 144.902 20.7969 145.289 20.7969C145.683 20.7969 146.052 20.7718 146.396 20.7217C146.746 20.6715 147.094 20.5785 147.438 20.4424C147.788 20.3063 148.086 20.1309 148.329 19.916C148.873 19.4219 149.146 18.7093 149.146 17.7783C149.146 15.9521 147.849 15.0391 145.257 15.0391C144.763 15.0391 144.226 15.0713 143.646 15.1357C143.646 15.9808 143.62 17.0801 143.57 18.4336ZM147.427 13.3955C148.086 12.4215 148.415 11.4941 148.415 10.6133C148.415 9.73242 148.143 9.04492 147.599 8.55078C147.054 8.05664 146.206 7.80957 145.053 7.80957C144.494 7.80957 143.914 7.86686 143.312 7.98145C143.477 8.74772 143.57 9.48535 143.592 10.1943C143.613 10.9033 143.624 11.555 143.624 12.1494C143.631 12.7438 143.638 13.195 143.646 13.5029C144.648 13.417 145.429 13.374 145.987 13.374C146.546 13.374 147.026 13.3812 147.427 13.3955ZM167.16 20.0986C167.325 20.2633 167.475 20.3851 167.611 20.4639C167.747 20.5355 167.855 20.5749 167.934 20.582C168.012 20.5892 168.123 20.5928 168.267 20.5928C168.417 20.5928 168.621 20.5247 168.879 20.3887L169.223 21.1621C168.743 21.7565 168.152 22.1755 167.45 22.4189C167.157 22.5192 166.92 22.5693 166.741 22.5693C166.061 22.5693 165.488 22.3975 165.022 22.0537C164.557 21.71 164.156 21.3125 163.819 20.8613C163.483 20.4102 163.164 19.8945 162.863 19.3145C162.305 18.2546 161.875 17.1768 161.574 16.0811C160.93 16.167 160.224 16.21 159.458 16.21V18.5732C159.458 19.1533 159.501 20.0807 159.587 21.3555L159.63 22C159.021 22.1862 158.294 22.2793 157.449 22.2793C156.611 22.2793 156.078 22.1862 155.849 22C156.056 20.4889 156.16 19.3359 156.16 18.541V9.92578C156.16 9.28841 156.103 8.88021 155.988 8.70117C155.874 8.52214 155.799 8.40755 155.763 8.35742C155.727 8.30013 155.662 8.24642 155.569 8.19629C155.483 8.139 155.423 8.09961 155.387 8.07812C155.308 8.04232 155.183 7.99577 155.011 7.93848C154.903 7.65918 154.85 7.38346 154.85 7.11133C154.85 6.83203 154.853 6.66016 154.86 6.5957C156.78 6.30208 158.899 6.15527 161.22 6.15527H161.832C163.357 6.18392 164.661 6.5599 165.742 7.2832C166.272 7.64128 166.695 8.10677 167.01 8.67969C167.325 9.2526 167.482 9.90072 167.482 10.624C167.482 11.8271 167.192 12.8548 166.612 13.707C166.039 14.5521 165.09 15.1895 163.766 15.6191C164.324 16.3711 164.793 17.0156 165.173 17.5527C165.552 18.0898 165.86 18.516 166.097 18.8311C166.333 19.1462 166.526 19.3932 166.677 19.5723C166.834 19.7513 166.995 19.9268 167.16 20.0986ZM164.303 10.6455C164.303 8.75488 163.178 7.80957 160.93 7.80957C160.507 7.80957 160.017 7.83822 159.458 7.89551V14.5449C161.993 14.4375 163.508 13.7643 164.002 12.5254C164.202 12.0026 164.303 11.376 164.303 10.6455ZM181.877 7.19727C182.106 7.49089 182.264 7.78809 182.35 8.08887C182.443 8.38965 182.561 9.15592 182.704 10.3877C182.854 11.6123 183.008 13.0804 183.166 14.792C183.324 16.5036 183.452 17.8285 183.553 18.7666C183.653 19.7048 183.811 20.7754 184.025 21.9785C183.51 22.1432 182.887 22.2256 182.156 22.2256C181.433 22.2256 180.924 22.1432 180.631 21.9785C180.33 21.1191 180.104 19.4183 179.954 16.876L175.571 16.6719C174.905 20.2526 173.749 22.1468 172.102 22.3545C172.03 22.3617 171.962 22.3652 171.897 22.3652C171.396 22.3652 170.938 22.2148 170.522 21.9141C170.107 21.6061 169.899 21.2373 169.899 20.8076C170.494 20.4066 171.042 19.848 171.543 19.1318C172.051 18.4157 172.47 17.6494 172.8 16.833C173.136 16.0094 173.426 15.1393 173.67 14.2227C174.114 12.4967 174.336 10.8926 174.336 9.41016C174.336 8.90169 174.275 8.52572 174.153 8.28223C174.032 8.03874 173.777 7.88835 173.391 7.83105C173.276 7.68783 173.219 7.43359 173.219 7.06836C173.219 6.70312 173.233 6.47396 173.262 6.38086C175.26 6.48828 177.856 6.5599 181.05 6.5957C181.379 6.69596 181.655 6.89648 181.877 7.19727ZM179.836 15.2432C179.8 14.484 179.761 13.528 179.718 12.375C179.675 11.222 179.646 10.5094 179.632 10.2373C179.618 9.95801 179.596 9.69661 179.567 9.45312C179.539 9.20247 179.51 9.02344 179.481 8.91602C179.453 8.80859 179.406 8.71191 179.342 8.62598C179.256 8.50423 179.037 8.42188 178.687 8.37891C178.343 8.33594 177.541 8.31445 176.28 8.31445C176.28 9.2526 176.227 10.4128 176.119 11.7949C176.019 13.1771 175.919 14.262 175.818 15.0498H176.227C177.458 15.0498 178.661 15.1143 179.836 15.2432ZM199.709 21.957C199.265 22.0573 198.943 22.1074 198.742 22.1074C198.549 22.1074 198.065 22.0645 197.292 21.9785C195.81 20.9473 193.156 16.8473 189.332 9.67871C189.661 14.9281 189.934 18.6449 190.148 20.8291L190.256 21.9141C189.618 22.0931 188.992 22.1826 188.376 22.1826C187.767 22.1826 187.352 22.0931 187.13 21.9141C187.316 20.7826 187.409 17.8571 187.409 13.1377C187.409 10.6885 187.384 9.31706 187.334 9.02344C187.291 8.72982 187.227 8.52214 187.141 8.40039C187.012 8.22852 186.861 8.11751 186.689 8.06738C186.518 8.01725 186.421 7.98861 186.399 7.98145C186.292 7.83822 186.238 7.60547 186.238 7.2832C186.238 6.95378 186.249 6.72461 186.271 6.5957C186.629 6.52409 187.101 6.48828 187.688 6.48828C188.276 6.48828 189.056 6.52409 190.03 6.5957C190.431 6.77474 190.951 7.29753 191.588 8.16406C192.225 9.02344 192.827 9.9401 193.393 10.9141C193.965 11.888 194.678 13.1162 195.53 14.5986C196.39 16.0739 197.081 17.2269 197.604 18.0576L197.045 6.71387C197.589 6.54915 198.105 6.4668 198.592 6.4668C199.086 6.4668 199.458 6.57064 199.709 6.77832C199.652 7.49447 199.623 9.25618 199.623 12.0635C199.623 14.8708 199.652 18.1686 199.709 21.957ZM203.394 15.2432L203.458 11.7627C203.458 11.0609 203.444 10.4342 203.415 9.88281C203.394 9.32422 203.329 8.94824 203.222 8.75488C203.121 8.55436 203.021 8.42546 202.921 8.36816C202.821 8.30371 202.72 8.25358 202.62 8.21777C202.52 8.18197 202.463 8.16406 202.448 8.16406C202.334 8.13542 202.276 7.94564 202.276 7.59473C202.276 7.23665 202.291 7.01465 202.319 6.92871C204.812 6.37728 206.695 6.10156 207.97 6.10156C211.013 6.10156 213.377 6.83561 215.06 8.30371C216.478 9.53548 217.187 11.2686 217.187 13.5029C217.187 15.2933 216.76 16.8581 215.908 18.1973C215.056 19.5293 213.882 20.5426 212.385 21.2373C210.895 21.9248 209.184 22.2686 207.25 22.2686C206.19 22.2686 205.198 22.179 204.274 22C203.802 21.8066 203.533 21.3125 203.469 20.5176C203.419 19.9017 203.394 18.9743 203.394 17.7354V15.2432ZM206.691 11.1289L206.584 17.6602V18.3906C206.584 19.7585 206.709 20.5426 206.96 20.7432C207.218 20.7861 207.493 20.8076 207.787 20.8076C208.081 20.8076 208.475 20.7969 208.969 20.7754C209.463 20.7467 209.989 20.5928 210.548 20.3135C211.114 20.0342 211.633 19.6331 212.105 19.1104C212.578 18.5876 212.954 17.8929 213.233 17.0264C213.513 16.1527 213.652 15.2181 213.652 14.2227C213.652 13.2201 213.538 12.3535 213.309 11.623C213.087 10.8926 212.793 10.2874 212.428 9.80762C212.07 9.3278 211.654 8.92318 211.182 8.59375C210.279 7.9707 209.352 7.65918 208.399 7.65918C207.447 7.65918 206.792 7.70931 206.434 7.80957C206.605 8.56152 206.691 9.45312 206.691 10.4844V11.1289Z" fill="#8CC5F9"/>
</svg>
